<svg xmlns="http://www.w3.org/2000/svg" width="90.51" height="129.53" viewBox="0 0 90.51 129.53">
  <defs>
    <style>
      .cls-1 {
        fill: #41c0f0;
      }

      .cls-2 {
        fill: #fff;
      }

      .cls-3 {
        fill: #9fbf9d;
      }
    </style>
  </defs>
  <g id="drive" transform="translate(-804.316 -311.931)">
    <path id="Path_445" data-name="Path 445" class="cls-1" d="M849.842,441.461c-.053-.091-2.741.121-2.955-.246-.442-.291-.974-.223-2.637-3.1-10.456-18.12-20.815-36.3-31.42-54.331-3.172-5.394-5.992-10.821-7.424-16.955-5.087-21.783,8.119-45.471,29.433-52.285,17.713-5.662,33.605-2.134,46.861,10.888,10.28,10.1,14.348,22.742,12.811,37.127a44.7,44.7,0,0,1-6.2,18.151q-7.815,13.238-15.5,26.554c-7.461,12.888-13.469,20.168-20.913,33.067A6.809,6.809,0,0,1,849.842,441.461ZM849.5,381.4c14.287.466,28.016-11.433,28.092-27.769a28.02,28.02,0,1,0-56.036.083A27.731,27.731,0,0,0,849.5,381.4Z" transform="translate(0 0)"/>
    <path id="Path_446" data-name="Path 446" class="cls-2" d="M879.859,405.066a28.019,28.019,0,0,1,.007-56.039A28.059,28.059,0,0,1,907.951,377.3C907.876,393.633,894.147,405.532,879.859,405.066Zm.064-12.293a15.657,15.657,0,1,0-15.67-15.68A15.739,15.739,0,0,0,879.923,392.772Z" transform="translate(-30.364 -23.664)"/>
    <path id="Path_447" data-name="Path 447" class="cls-3" d="M901.661,414.672a15.657,15.657,0,1,1,15.619-15.54A15.766,15.766,0,0,1,901.661,414.672Z" transform="translate(-52.101 -45.563)"/>
  </g>
</svg>
