<svg xmlns="http://www.w3.org/2000/svg" xmlns:xlink="http://www.w3.org/1999/xlink" width="320" height="286" viewBox="0 0 320 286"><defs><style>.a,.g{fill:none;}.a{stroke:#f28d2c;stroke-width:8px;}.b{fill:#fff;}.c{fill:#41c0f0;}.d{fill:#9fbf9d;}.e{fill:#40c0f0;}.f{stroke:none;}.h{filter:url(#c);}.i{filter:url(#a);}</style><filter id="a" x="0" y="0" width="320" height="286" filterUnits="userSpaceOnUse"><feOffset dy="3" input="SourceAlpha"/><feGaussianBlur stdDeviation="3" result="b"/><feFlood flood-opacity="0.161"/><feComposite operator="in" in2="b"/></filter><filter id="c" x="0" y="0" width="320" height="286" filterUnits="userSpaceOnUse"><feOffset dx="3" dy="6" input="SourceAlpha"/><feGaussianBlur stdDeviation="5" result="d"/><feFlood flood-opacity="0.161" result="e"/><feComposite operator="out" in="SourceGraphic" in2="d"/><feComposite operator="in" in="e"/><feComposite operator="in" in2="SourceGraphic"/></filter></defs><g transform="translate(-236 -3422)"><g data-type="innerShadowGroup"><g class="i" transform="matrix(1, 0, 0, 1, 236, 3422)"><g class="a" transform="translate(9 6)"><rect class="f" width="302" height="268" rx="134"/><rect class="g" x="4" y="4" width="294" height="260" rx="130"/></g></g><g class="h" transform="matrix(1, 0, 0, 1, 236, 3422)"><rect class="b" width="302" height="268" rx="134" transform="translate(9 6)"/></g><g class="a" transform="translate(245 3428)"><rect class="f" width="302" height="268" rx="134"/><rect class="g" x="4" y="4" width="294" height="260" rx="130"/></g></g><g transform="translate(-62.463 3271.29)"><path class="c" d="M455.372,336.108c1.226,7.991,3.416,15.623,7.8,22.551,11.486,18.172,33.081,27.561,53.666,23.223a51.609,51.609,0,0,0,40.774-42.976,47.631,47.631,0,0,0-.161-15.48c-.278-1.539-.1-2.482,1.352-3.211,2.089-1.043,4.12-2.2,6.144-3.371,1.374-.792,2.249-.707,2.539,1.067a53.069,53.069,0,0,1,1.154,8.122,58.3,58.3,0,0,0,0,10.894c-.979,23.3-18.874,45.908-42.484,53.679-37.055,12.2-76.3-12.634-81.195-51.373a62.318,62.318,0,0,1,54.767-69.509,60.327,60.327,0,0,1,40.4,9.413c2.677,1.714,4.156,1.679,5.646-1.083a27.6,27.6,0,0,1,2.545-3.295l10.362,24.175c-5.652-.629-10.747-1.181-15.837-1.768-2.723-.314-5.434-.752-8.162-1.016-1.48-.143-2.094-.331-1.061-1.942,3.073-4.792,3.019-4.827-1.972-7.605-31.707-17.649-71.321,2.457-75.837,38.485a15.024,15.024,0,0,1-.436,1.763A20.972,20.972,0,0,0,455.372,336.108Z" transform="translate(-33.337 -22.602)"/><path class="d" d="M610.019,323.595c-3.446,1.072-6.922,2.059-10.335,3.228q-44.549,15.261-71.547,53.856c-.645.917-1.117,3.238-2.771.61-8.448-13.426-20.975-20.9-36.129-24.357-2.178-.5-2.5-1.05-1.375-2.913,3.458-5.743,6.88-11.509,10.167-17.35,1.03-1.831,2.089-1.723,3.7-.978,8.678,4.019,15.029,10.612,20.357,18.323,1.043,1.509,1.705,2.172,3.4.577,16.077-15.141,35.516-23.654,56.8-28.365,8.627-1.91,17.338-3.406,26.242-3.1.478.016.955.075,1.433.114Z" transform="translate(-49.998 -43.556)"/><path class="c" d="M358.9,233.219c23.463-.093,48.817,10.571,52.985,39.929a38.883,38.883,0,0,1,.06,9.649,68.815,68.815,0,0,0-21.936-31.635,64.745,64.745,0,0,0-18.448-10.987c9.241,5.855,18.019,12.249,25.175,20.612,7.234,8.454,12.554,17.831,14.019,29.327-1.839-3.989-5.255-3.668-8.631-3.875-19.2-1.173-31.859-12.573-35.087-31.581C365.745,247.025,364.508,239.414,358.9,233.219Z" transform="translate(0 -8.544)"/><path class="c" d="M453.23,261.278c1.124-9.485,5.3-17.574,11.16-24.925,5.744-7.211,12.969-12.721,20.438-17.985a58.1,58.1,0,0,0-19.894,14.442A56.858,56.858,0,0,0,452.547,254.6c-5.508-21.135,19.435-45.432,43.77-43.161.062.176.229.431.164.522-3.623,5.135-4.807,11.05-5.857,17.106-3.149,18.171-12.343,26.579-30.756,28.49C455.6,258,455.6,258,453.23,261.278Z" transform="translate(-36.184)"/><path class="e" d="M461.822,372.353c-.234.116-.477,1.389-.57.372a54.708,54.708,0,0,1,0-10.009c.093-1.006.333.266.571.38Q461.824,367.725,461.822,372.353Z" transform="translate(-39.787 -58.847)"/><path class="e" d="M647.5,373.141a24.566,24.566,0,0,1,0-10.894A71.875,71.875,0,0,1,647.5,373.141Z" transform="translate(-112.203 -58.815)"/></g></g></svg>