<svg xmlns="http://www.w3.org/2000/svg" width="787.442" height="633.85" viewBox="0 0 787.442 633.85">
  <defs>
    <style>
      .cls-1 {
        fill: #41c0f0;
      }

      .cls-2 {
        fill: #d6d6d6;
      }

      .cls-3 {
        fill: #f18d2a;
      }

      .cls-4 {
        fill: #9fbf9d;
      }

      .cls-5 {
        fill: #c0cece;
      }

      .cls-6 {
        fill: #cfe0e0;
      }

      .cls-7 {
        fill: #40a1c8;
      }

      .cls-8 {
        fill: #403027;
      }

      .cls-9 {
        fill: #fdfefe;
      }

      .cls-10 {
        fill: #666668;
      }

      .cls-11 {
        fill: #3e3c3f;
      }

      .cls-12 {
        fill: #f6b624;
      }

      .cls-13 {
        fill: #fb8c1b;
      }

      .cls-14 {
        fill: #347eac;
      }

      .cls-15 {
        fill: #e37617;
      }

      .cls-16 {
        fill: #d05823;
      }
    </style>
  </defs>
  <g id="Group_250" data-name="Group 250" transform="translate(-786.957 -656.382)">
    <path id="Path_514" data-name="Path 514" class="cls-1" d="M1157.06,1203.133q.16-1.706.316-3.414c1.341-.429,2.478-.926.678-2.367l.458-3.384c2.758-1.062,1.895-3.158,1.362-5.158l1.966-3.9a22.531,22.531,0,0,1,9.31-1.5c38.272.193,76.549-.024,114.825.041,2.639,0,5.567-.52,4.838,3.752-7.936,8.634-7.944,19.5-7.753,30.091.1,5.327,4.427,8.315,9.851,8.585,4.769.237,9.56.126,14.341.069,7.629-.1,13.078-4.017,15.216-11.463,1.2-4.192,1.45-8.652,2.534-12.886,1.31-5.116.933-9.829-2.031-14.256.46-3.932,3.233-3.967,6.289-3.953q22.942.1,45.884,0c2-.008,4.26.792,5.923-1.154l17.165-.677c3.1,1.056,6.178,1.47,9.21-.226,4.2.087,8.394.1,12.586.285,4.557.207,5.878-2.149,4.79-6.1-1.3-4.7-.4-9.2,1.474-13.362,4.228-9.376,4.984-19.451,6.59-29.367.352-3.338,1.637-6.564,1.228-9.993,3.331-8.141,4.274-16.77,5.2-25.4l.015-.294-.252-.159a2.644,2.644,0,0,0,.823-3.15c1.261-.808,1.51-2.116,1.739-3.452,2.227-12.976,4.557-25.933,6.662-38.929,1.553-9.583,4.1-19.007,4.534-28.768,2.791-6.944,3.657-14.263,4.214-21.643,1.157-8.361,3.99-16.486,3.542-25.073,2.271-1.083,2.092-3.438,2.491-5.32.989-4.653,1.617-9.382,2.449-14.071,2.8-15.754,5.522-31.521,8.531-47.235.543-2.841-.424-4.342-2.417-5.766a55.566,55.566,0,0,1,.366-5.72c6.245-37.793,12.457-75.592,18.91-113.355.827-4.852-1.037-5.431-5.073-5.414-26,.1-52.011.038-78.015.021-2.475,0-4.987.264-7.331-.864,1.2-3.209,1.9-6.726,3.681-9.575,10.922-17.531,16.906-36.264,14.8-57.132,22.352-.085,44.7-.371,67.054-.187,15.308.125,30.937-2.273,45.59,4.592h.007a22.243,22.243,0,0,0,7.583,7.163,26.869,26.869,0,0,0,5.248,8.67c-.594.424-1.088.85-.032,1.313l-.034-.051c1.652,14.591-1.764,28.7-4.161,42.893-4.329,25.655-8.772,51.292-13.1,76.947-15.554,94.109-32.5,187.978-47.312,282.211-1.73,2.176-.749,4.809-1.176,7.206-3.775,20.957-8.043,41.848-10.993,62.922-2.881,20.6-23.716,41.944-48.532,41.706-75.362-.721-150.736-.369-226.1-.226-12.051.023-22.6-2.5-30.258-12.552-2.645-2.527-3.787-5.816-4.664-9.235,2.32-2.813.264-4.343-1.73-5.89a46.066,46.066,0,0,1,.167-13.43C1157.711,1204.963,1158.579,1204.311,1157.06,1203.133Z" transform="translate(-7.479 -1.107)"/>
    <path id="Path_515" data-name="Path 515" class="cls-2" d="M1466.729,1269.068c4.561,2.408,9.727,1.725,14.459,1.959,18.1.91,36.187,2.057,54.2,3.919,11.152,1.154,22.415,1.992,33.3,4.971,2.184.6,5.833.528,5.705,3.651-.107,2.605-3.407,2.428-5.571,3-31.862,6.994-64.755,7.1-97.142,9.854-42.5,2.305-85.215,2.615-127.762,3.937-106.719,2.46-213.52,3.093-320.22.531-56.677-1.6-113.4-2.368-169.98-6.747-19.727-1.628-39.561-2.635-59-6.8-2.966-.636-7.774-.376-7.765-4.13.008-3.191,4.723-3.124,7.544-3.78,14.9-3.461,30.138-4.517,45.315-5.7,106.369-7.473,213.121-8.3,319.672-9.314,1.839-.034,3.9.537,5.291-1.352,8.949,12.387,20.182,24.9,36.9,24.428q112.46-.385,224.918-.14c12.784.01,24.056-3.642,33.526-12.38C1463.37,1274.17,1464.449,1270.951,1466.729,1269.068Z" transform="translate(0 -12.296)"/>
    <path id="Path_516" data-name="Path 516" class="cls-3" d="M840.411,1188.082c-13.159,1.071-26.108-1.559-39.169-2.225-1.756-.088-2.132-1.47-2.436-2.722-3.271-13.5-6.847-26.972-5.487-41.089.521-5.4,2.025-9.965,8.205-11.632,3.688-1,1.448-4.507,1.95-6.858a38.235,38.235,0,0,0,.444-4.507c13.059,1.492,23.744-4.275,32.482-12.7,14.808-14.283,31.01-25.607,50.979-31.414,13.7-3.985,27.53-6.016,41.724-5,3.377.244,6.748,1.135,10.2,1.11.42,2.346,2.363,2.852,4.207,3.311,7.907,1.969,14.606,6.208,21.211,10.777,24.577,16.471,37.537,43.816,40.169,72.768.608,4.467,2.983,7.348,7.42,7.132,107.029,3.179,214.341.288,321.474,1.278a34.439,34.439,0,0,0,10.182-1.116c-1.8,6.219-7.865,7.941-12.206,11.427-8.073,6.48-17.33,10.3-27.766,10.3q-156.543.112-313.088.184c-4.821.007-5.718-1.717-5.576-6.019,2.909-33.185-16.086-66.374-48.392-76.555-19.013-6.369-38.049-6.112-56.558,3.66-20.518,10.835-33.634,26.929-38.735,49.589C839.378,1167.829,841.1,1178,840.411,1188.082Z" transform="translate(-0.123 -8.377)"/>
    <path id="Path_517" data-name="Path 517" class="cls-3" d="M939.507,1068.127c-3.449.022-6.82-.868-10.2-1.112-14.189-1.023-28.02,1.008-41.724,5-19.97,5.807-36.172,17.133-50.979,31.414-8.738,8.426-19.423,14.2-32.482,12.7q-.41-5.4-.821-10.81a29.571,29.571,0,0,0-.067-13.56,4.824,4.824,0,0,0,.026-4.079q.98-2.41,1.959-4.818c1.889-.294,3.781-.563,5.666-.882,2.442-.412,3.969-.4,3.521,3.076-.658,5.106,1.057,6.48,6.216,5.4,4.9-1.025,9.343-3.331,13.794-5.573,11.77-5.915,22.464-13.21,29.9-24.349,2.2-3.29,5.228-7.125.569-11.034-.605-3.306,1.254-4.858,4.036-5.921,13.143-5.017,26.32-9.945,39.378-15.174,12.727-5.095,26.112-8.144,38.934-13.031,7.954-3.037,16.159-6,25.481-4.541,19.824,3.111,38.638-.035,55.3-12.174,1.613-1.176,2.975-2.363,3.324-4.409l.124.138,1.122-.807,27.679-31.392,13.051-12.8c9.447-2.984,17.314-9.265,26.769-12.435,7.7-2.587,15.321-5.389,23.193-7.486,7.074-1.879,14.01-4.439,21.536-3.491a21.58,21.58,0,0,1-2.927,1.673c-28.668,11.051-51.5,30-71.5,52.779a48.075,48.075,0,0,0-11.62,12.966c-5.067,8.006-4.855,8.812,3.655,12.753q2.2,36.152,4.4,72.3c-4.1,7.916-10.507,5.707-16.625,3.527-10.077-3.584-20.714-4.829-31.074-6.681-19.15-3.429-38.631-5.047-58-7.133-3.224-.347-6.825-1.3-9.94.944C947.2,1069.811,943.494,1067.3,939.507,1068.127Z" transform="translate(-0.33 -5.46)"/>
    <path id="Path_518" data-name="Path 518" class="cls-4" d="M1421.718,710.008c2.1,20.868-3.882,39.6-14.8,57.132-1.775,2.85-2.48,6.368-3.678,9.572-2.676,1.568-3.436,4.474-4.7,6.968a455.829,455.829,0,0,1-38.122,61.4c-2.529,3.48-4.2,4.655-7.348.206-9.926-14.018-19.431-28.282-28.222-43.044-4.948-8.312-8.745-17.3-14.665-25.034-.936-4.311-2.995-8.2-5.025-12.017-8.541-16.055-16.121-32.311-13.582-51.278,1.546-9.025,4.764-17.5,8.524-25.791.316-.438.642-.87.963-1.3q.709-1.132,1.413-2.262c.27-.392.543-.775.814-1.163a1.862,1.862,0,0,0,.437-.98,118.5,118.5,0,0,1,23.836-19.638c38.474-18.058,84.47,3.72,93.224,45.744Zm-32.012-.22c1.939-.784,1.056-1.758.18-2.726-8.006-18-26.955-26.708-43.952-20.2-10.475,1.764-22.151,13.357-23.111,22.949-10.546,29.742,22.411,58.464,49.881,43.447,15.128-7.74,24.8-28.05,17.169-43.327Z" transform="translate(-10.217 0)"/>
    <path id="Path_520" data-name="Path 520" class="cls-4" d="M1467.757,1272.559c-9.474,8.737-20.745,12.39-33.529,12.38q-112.458-.082-224.919.14c-16.717.477-27.956-12.041-36.9-24.428-2.853-6.221-8.23-11.119-9.5-18.166,7.657,10.049,18.209,12.575,30.258,12.552,75.368-.142,150.742-.49,226.1.226,24.816.238,45.651-21.109,48.532-41.707,2.95-21.074,7.218-41.965,10.993-62.922.431-2.4-.551-5.03,1.176-7.2,1.823,1.434,1.521,3.527,1.247,5.311-1.158,7.564,5.756,11.786,9.536,13.554,5.738,2.682,4.285,5.733,3.931,9.279-.223,2.236-1.442,4.371.157,6.53l-.518,2.547c-1.646,1.094-3.527,2.114-1.345,4.383q-.125,1.163-.251,2.323c-1.824.844-2.084,2.463-2.36,4.248-1.81,11.719-3.637,23.436-5.612,35.127-2.029,12.014-2.32,24.352-10.65,34.79C1471.724,1264.506,1468.266,1268,1467.757,1272.559Z" transform="translate(-7.62 -9.871)"/>
    <path id="Path_521" data-name="Path 521" class="cls-4" d="M1501.4,1169.788c-1.6-2.155-.379-4.294-.157-6.53.354-3.545,1.807-6.6-3.931-9.278-3.781-1.765-10.694-5.99-9.536-13.554.273-1.785.576-3.878-1.247-5.311,14.832-94.23,31.755-188.1,47.312-282.214,4.323-25.655,8.766-51.292,13.095-76.947,2.4-14.2,5.813-28.3,4.161-42.893,8.4,7.771,11.882,18.159,14.625,28.715,2.538,9.766,1.327,19.45-.318,29.541-8.409,50.152-15.6,100.535-25.507,150.428-.52,2.388-.279,4.939-.393,7.415a7.923,7.923,0,0,0-.962,1.985C1526.227,1024.037,1514.2,1096.979,1501.4,1169.788Zm.641-21.88c.167.278.279.7.49.763.244.069.577-.189.872-.3q-.327-.523-.658-1.045Z" transform="translate(-14.179 -1.554)"/>
    <path id="Path_522" data-name="Path 522" class="cls-1" d="M1290.047,715c-2.538,18.968,5.042,35.223,13.582,51.278,2.03,3.821,4.089,7.7,5.027,12.02-8.586.138-17.176.294-25.767.4-2.427.031-4.5.177-4.991,3.346-4.364,24.934-8.814,49.864-13.1,74.814a116.518,116.518,0,0,0-48.817,10.385c-.554-11.4,3.527-22.12,4.845-33.249,2.145-18.156,7.393-35.811,8.818-54.086,1.142-6.315,2.624-12.594,3.352-18.957a83.882,83.882,0,0,1,10.62-32.614c1.81-.372,2.854-1.785,4.032-3,10.006-10.33,21.825-15.857,36.569-14.724C1287.668,710.88,1289.3,711.941,1290.047,715Z" transform="translate(-8.695 -1.096)"/>
    <path id="Path_524" data-name="Path 524" class="cls-3" d="M841.718,1187.3c.695-10.091-1.034-20.254,1.23-30.3,5.1-22.661,18.228-38.754,38.758-49.589,18.52-9.773,37.568-10.03,56.593-3.661,32.328,10.184,51.324,43.36,48.42,76.556-.141,4.3.755,6.026,5.578,6.02q156.64-.225,313.281-.184c10.442-.007,19.7-3.821,27.782-10.3,4.344-3.485,10.414-5.208,12.214-11.429v-.009c4.67-1.461,7.2-5.446,10.048-8.885,11.775-14.249,20.534-30.4,28.513-46.941,3.824-7.936,8.03-15.81,9.7-24.629,4.5-3.186,3.607-8.989,6.312-13.117.99-1.508,1.421-4.739.5-5.833-1.549-1.84-3.8.294-5.622,1.095-15.272,6.719-27.392,17.6-38.785,29.435l-.771-.451a14.417,14.417,0,0,1,3.236-5.346,133.07,133.07,0,0,1,24.92-20.533c6.254-3.949,13.808-5.327,19.38-10.415l.154-.1a1.669,1.669,0,0,0,.981-.187q.507-.045,1.011-.106c4.59-1.013,9.163-2.785,13.774-2.883,10.28-.218,15.263-6.279,19.606-14.545,2.353-4.486,3.334-9.66,6.739-13.594l1.878,1.38c-.435,9.758-2.982,19.186-4.536,28.769-2.106,13-4.439,25.953-6.666,38.929-.23,1.335-.478,2.646-1.74,3.454l-1.388.2c-40.537,3.7-70.414,41.962-64.408,82.271.385,3.323-1.073,3.955-3.839,3.94q-12.894-.069-25.789.039c-2.041.018-4.243-.6-6.034,1.015-56.722.9-113.508.036-170.252.327-2.621,0-5.346-.632-7.869.7-58.609-.885-117.278-.025-175.907-.282a2.686,2.686,0,0,1-.206-.807c.616-.326,1.764-.647,1.771-.98.079-7.816.841-15.73-2.674-23.133l-.112-2.273c.064-1.959.581-4.115-2.109-4.885a1.307,1.307,0,0,0,0-.816c-1.042-11.356-12.76-23.42-21.033-30.421-3.877-3.292-8.245-6.508-13.608-7.489a11.651,11.651,0,0,1-2.268-.315c-27.051-9.486-51.529-4.862-72.053,16.008-6.194,4.3-9.393,10.693-11.939,17.5-5.382,4.762-6.071,10.784-4.664,17.368l.01,3.19c-2.887.784-2.23,3.169-2.156,5.109a16.473,16.473,0,0,1-3.432,11.024Z" transform="translate(-1.11 -7.519)"/>
    <path id="Path_525" data-name="Path 525" d="M977.264,1162.59q.057,1.136.112,2.272c-2.706,5.16-.1,10.582-.252,15.834-.067,2.235-3.567,6.335,1.153,8.278a2.709,2.709,0,0,0,.206.805c-13.546,71.689-114.852,72.527-128.725.408.186-5.819,1.078-11.642-.082-17.455q0-1.594-.009-3.19c2.939-5.416,3.331-11.518,4.66-17.368,2.547-6.811,5.741-13.2,11.931-17.5,20.57-20.891,44.92-25.488,72.009-16.008a11.572,11.572,0,0,0,2.267.315c-.131,2.824,1.159,4.525,3.809,5.617,10.767,4.431,18.079,12.752,23.6,22.534,2.057,3.649,4.863,6.477,7.213,9.761a1.308,1.308,0,0,1,0,.821C975.256,1159.6,974.07,1162.04,977.264,1162.59Zm-12.474,15.958c-.046-27.881-23.042-50.586-51.111-50.456-67.372,3.058-67.073,99.252.295,101.911,27.941.179,50.859-23.029,50.815-51.454Z" transform="translate(-1.271 -9.274)"/>
    <path id="Path_526" data-name="Path 526" class="cls-3" d="M817.866,1061.252c6.938-11.834,17.724-19.653,28.475-27.591,14.943-11.031,32.476-15.783,49.746-21.319,8.863-2.842,18.117-4.383,26.695-8.133l4.474-1.726c9.111-.77,17.1-5.747,26.094-6.938,1.1,1.747,2.965,2.449,4.729,3.011,14.844,4.7,30.015,6.6,45.515,4.526,9.64-1.287,18.654-5.114,28.051-7.419-.35,2.045-1.712,3.233-3.324,4.409-16.667,12.139-35.481,15.284-55.3,12.174-9.322-1.461-17.526,1.507-25.481,4.541-12.823,4.891-26.207,7.936-38.935,13.032-13.058,5.229-26.236,10.156-39.378,15.174-2.781,1.062-4.642,2.614-4.035,5.92-12.176-2.178-21.319,1.265-31.62,7.2C828.083,1057.924,823.472,1062.074,817.866,1061.252Z" transform="translate(-0.626 -6.874)"/>
    <path id="Path_528" data-name="Path 528" class="cls-5" d="M1160.566,1192.023c2.521-1.327,5.246-.694,7.865-.7,56.709-.324,113.46.551,170.147-.326l36.862.084,5.7.9c-1.666,1.946-3.925,1.147-5.922,1.154q-22.941.1-45.884,0c-3.058-.014-5.829.022-6.283,3.95-10.693-5.736-21.421-4.7-32.165-.14.729-4.273-2.2-3.755-4.838-3.752-38.271-.049-76.552.15-114.825-.041a20.925,20.925,0,0,0-11.031,2.339C1158.993,1194.2,1160.361,1193.174,1160.566,1192.023Z" transform="translate(-7.555 -10.836)"/>
    <path id="Path_529" data-name="Path 529" class="cls-6" d="M1424.4,711.019q-.467-.747-.936-1.492c1.328-1.646,1.789-5.277,5.144-1.595.935,1.026,3.634.571,5.525.574,27.948.03,55.9.084,83.848-.041,4.265-.019,8.358.9,12.421,1.672,2.654.5,6.255,1.274,6.642,5.291-14.654-6.865-30.28-4.467-45.591-4.592C1469.107,710.649,1446.753,710.935,1424.4,711.019Z" transform="translate(-12.901 -1.013)"/>
    <path id="Path_531" data-name="Path 531" class="cls-7" d="M1499.031,1188.272c1.724,2.671-.9,5.29-.1,7.949-.114.649-.229,1.3-.34,1.95-1.007,1.539-.931,3.258-.822,4.981-2.214,12.547-4.752,25.05-6.537,37.658a57.471,57.471,0,0,1-10.581,26.747c-2.28,1.883-3.359,5.1-6.594,5.918.51-4.561,3.969-8.054,6.348-11.033,8.328-10.437,8.622-22.776,10.65-34.79,1.975-11.691,3.8-23.408,5.612-35.127C1496.948,1190.734,1497.207,1189.117,1499.031,1188.272Z" transform="translate(-13.926 -10.781)"/>
    <path id="Path_532" data-name="Path 532" class="cls-8" d="M849.561,1173.949c1.162,5.813.27,11.635.082,17.455-1.612-1.624-3.745-1.009-5.662-1.322a16.483,16.483,0,0,0,3.429-11.024C847.331,1177.118,846.674,1174.727,849.561,1173.949Z" transform="translate(-1.156 -10.49)"/>
    <path id="Path_533" data-name="Path 533" class="cls-6" d="M1546.984,722.779a22.246,22.246,0,0,1-7.583-7.163C1546.734,715.725,1548.875,717.746,1546.984,722.779Z" transform="translate(-15.251 -1.201)"/>
    <path id="Path_534" data-name="Path 534" class="cls-5" d="M1156.374,1229.1c1.994,1.547,4.05,3.076,1.73,5.89A7.487,7.487,0,0,1,1156.374,1229.1Z" transform="translate(-7.486 -11.608)"/>
    <path id="Path_535" data-name="Path 535" class="cls-5" d="M1159.973,1198.5c.532,1.944,1.261,3.944-1.414,4.974C1158.231,1201.585,1157.85,1199.685,1159.973,1198.5Z" transform="translate(-7.527 -10.988)"/>
    <path id="Path_536" data-name="Path 536" class="cls-6" d="M1498.265,1203.356c-.109-1.724-.185-3.442.822-4.981C1499.534,1200.152,1500.078,1201.948,1498.265,1203.356Z" transform="translate(-14.416 -10.985)"/>
    <path id="Path_537" data-name="Path 537" class="cls-5" d="M1158.145,1207.08c1.7,1.4.582,1.89-.743,2.314A1.8,1.8,0,0,1,1158.145,1207.08Z" transform="translate(-7.505 -11.162)"/>
    <path id="Path_538" data-name="Path 538" class="cls-5" d="M1157.066,1212.926c1.519,1.175.646,1.831-.526,2.414A1.61,1.61,0,0,1,1157.066,1212.926Z" transform="translate(-7.484 -11.28)"/>
    <path id="Path_539" data-name="Path 539" class="cls-6" d="M1303.522,683.95c-.272.392-.544.776-.814,1.164C1302.98,684.725,1303.251,684.337,1303.522,683.95Z" transform="translate(-10.453 -0.559)"/>
    <path id="Path_540" data-name="Path 540" class="cls-7" d="M1552.452,733.088c-1.056-.462-.563-.888.031-1.313Q1552.469,732.432,1552.452,733.088Z" transform="translate(-15.503 -1.528)"/>
    <path id="Path_541" data-name="Path 541" class="cls-6" d="M1301.248,687.446q-.435.586-.871,1.176Q1300.815,688.031,1301.248,687.446Z" transform="translate(-10.406 -0.63)"/>
    <path id="Path_542" data-name="Path 542" class="cls-3" d="M1150.407,925.518c-7.523-.949-14.462,1.612-21.535,3.492-7.872,2.092-15.489,4.9-23.193,7.485-9.456,3.17-17.323,9.453-26.766,12.434,1.677-3.083,4.431-5.2,6.8-7.68,8.4-8.787,17.458-16.949,25.059-26.491,14.2-5.466,29.32-6.421,44.088-9.138,17.456-3.212,35.27-3.272,52.715-6.4q22.785-.556,45.572-1.161c.686-.019,1.354-.63,2.03-.965,3.438,2.169,7.115.525,10.629.49,57.954-.663,115.758,2.376,173.485,7.063,10.023.814,20.182.98,30.027,3.527a16.372,16.372,0,0,0,.5,1.627c.746,1.8,1.488,3.858-.056,5.291-1.289,1.2-2.707-.638-4.109-.961-4.225-.973-8.426-2.063-12.68-2.878-10.282-1.968-10.292-1.915-13.606,6.992-18.83,1.614-37.72.692-56.571,1.286l-123.608-.09c-7.471-.258-7.51-.255-7.152,7a25.3,25.3,0,0,0,.834,5.032,118.685,118.685,0,0,1,3.776,31.645c-.188,12.241-.054,24.487-.046,36.73,0,2.293.21,4.6-1.092,6.684l-1.157-1.078c1.526-25.385,2.026-51.007-3.213-76.033-1.139-5.585-2.056-9.509-8.29-9.5-19.517.023-39.042-.657-58.543.731C1172.709,920.214,1161.614,923.26,1150.407,925.518Z" transform="translate(-5.917 -4.879)"/>
    <path id="Path_543" data-name="Path 543" d="M1108.789,915c-7.6,9.541-16.663,17.7-25.059,26.49-2.367,2.477-5.12,4.6-6.8,7.68q-6.529,6.4-13.055,12.8c-4.311-1.361-5.094,3.418-8.041,4.626-20.88,8.549-42.556,10.421-64.687,7.6-3.238-.412-7.5.9-9.928-2.914C1017.033,941.473,1063.178,923.142,1108.789,915Z" transform="translate(-3.938 -5.242)"/>
    <path id="Path_544" data-name="Path 544" d="M980.714,972.249c2.428,3.822,6.69,2.5,9.928,2.914,22.131,2.822,43.807.95,64.687-7.6,2.95-1.208,3.724-5.987,8.042-4.626l-27.677,31.392c-.622-.074-1.1.045-1.123.808l-.125-.139c-9.4,2.3-18.411,6.131-28.051,7.419-15.5,2.071-30.666.174-45.514-4.526-1.765-.558-3.625-1.265-4.729-3.012C963.955,986.917,971.509,978.687,980.714,972.249Z" transform="translate(-3.429 -6.208)"/>
    <path id="Path_545" data-name="Path 545" class="cls-1" d="M1257.838,896.217c-.676.336-1.345.949-2.03.966q-22.785.644-45.572,1.161c2.156-9.307,2.11-19.041,5.625-28.067a116.578,116.578,0,0,1,48.821-10.384C1262.647,872.048,1261.319,884.335,1257.838,896.217Z" transform="translate(-8.579 -4.125)"/>
    <path id="Path_546" data-name="Path 546" class="cls-9" d="M1258.823,894.583c3.481-11.884,4.808-24.172,6.842-36.327q4.8-27.57,9.613-55.133c1.149-6.564,2.46-13.1,3.49-19.681.5-3.169,2.566-3.315,4.991-3.346,8.589-.11,17.177-.263,25.768-.4,5.919,7.735,9.715,16.72,14.663,25.032,8.791,14.763,18.3,29.026,28.222,43.044,3.151,4.449,4.817,3.273,7.348-.207a456.021,456.021,0,0,0,38.122-61.4c1.267-2.5,2.026-5.4,4.7-6.968,2.341,1.133,4.855.867,7.328.867,26,.018,52.01.084,78.015-.021,4.035-.015,5.9.562,5.073,5.414-6.449,37.759-12.66,75.559-18.909,113.356a54.668,54.668,0,0,0-.365,5.718l-.762,1.126c-9.844-2.547-20-2.712-30.027-3.527-57.727-4.686-115.531-7.726-173.485-7.063C1265.938,895.108,1262.266,896.751,1258.823,894.583Z" transform="translate(-9.564 -2.489)"/>
    <path id="Path_547" data-name="Path 547" d="M1462.889,980.482c.45,8.587-2.384,16.712-3.542,25.071-1.289,1.216-1.274,3.756-3.79,3.724-9.846.079-19.7-.7-29.543.183-52.025-2.088-104.21-1.689-156.291-2.872q-.076-13.138-.157-26.279a9.445,9.445,0,0,1,.373-1.077c.053-.114.285-.143.435-.211.692,1.609.9,3.3,3.491,3.429,30.261,2.554,60.561,2.477,90.911,2.276a259.249,259.249,0,0,0,43.719-3.535,116.259,116.259,0,0,0,24.17-6.375c9.142-3.655,15.8-10.239,18.652-20.056,5.013,5.678,6.8,13.07,10.373,19.51q.227,1.256.455,2.514c-.271.456-.173.722.385.754Q1462.708,979.01,1462.889,980.482Z" transform="translate(-9.782 -6.048)"/>
    <path id="Path_548" data-name="Path 548" class="cls-3" d="M1379.139,1189.193l-36.862-.084c1.789-1.618,3.99-1,6.029-1.015q12.885-.108,25.774-.04c2.766.015,4.223-.617,3.838-3.94-6.009-40.289,23.856-78.58,64.368-82.272q.284,1.47.563,2.952l.252.159s-.015.294-.02.294c-1.384.277-1.618,1.329-1.89,2.509-.948,4.1-2.463,6.672-7.2,8.793-4,1.795-8.47,1.3-12.1,3.912-21.092,14.461-37.179,34.26-34.922,61.133.385,7.152-1.68,6.322-5.952,6.489C1380.38,1188.111,1379.766,1188.808,1379.139,1189.193Z" transform="translate(-11.256 -9.029)"/>
    <path id="Path_549" data-name="Path 549" d="M1379.9,1188.94c.626-.385,1.241-1.078,1.882-1.106,4.272-.166,6.337.665,5.951-6.49-2.251-26.894,13.838-46.671,34.925-61.132,3.631-2.615,8.1-2.118,12.1-3.913,4.731-2.122,6.246-4.7,7.2-8.793.272-1.176.505-2.233,1.89-2.509-.921,8.632-1.867,17.261-5.193,25.4a30.342,30.342,0,0,0-3.833.956c-23.8,9.258-35.864,31.05-32.043,57.809l-17.169.677Z" transform="translate(-12.018 -9.093)"/>
    <path id="Path_550" data-name="Path 550" class="cls-9" d="M1293.437,1196.591c10.745-4.562,21.473-5.6,32.165.139,2.958,4.429,3.331,9.143,2.025,14.258-1.084,4.235-1.331,8.7-2.534,12.886-2.138,7.446-7.588,11.365-15.216,11.463-4.781.058-9.572.167-14.341-.069-5.423-.27-9.754-3.259-9.851-8.585C1285.5,1216.093,1285.507,1205.226,1293.437,1196.591Zm11.039,32.655c10.344.011,14.472-2.308,15.837-9.276.914-4.668,1.457-9.405,2.149-14.118.4-2.719-.334-5.619-2.911-6.178-7.434-1.612-14.99-1.763-22.193,1.332-2.29.98-3.156,3.256-3.625,5.553-.913,4.475-1.786,8.959-2.567,13.46-1.79,9.784,6.006,9.391,13.314,9.227Z" transform="translate(-10.107 -10.872)"/>
    <path id="Path_551" data-name="Path 551" d="M1438.07,1141.123c-1.605,9.918-2.362,19.991-6.589,29.367-1.874,4.159-2.774,8.658-1.474,13.364,1.091,3.954-.233,6.308-4.79,6.1-4.191-.19-8.389-.2-12.586-.285C1408.585,1168.964,1417.827,1149.085,1438.07,1141.123Z" transform="translate(-12.662 -9.825)"/>
    <path id="Path_552" data-name="Path 552" class="cls-4" d="M1437.881,1140.917c-20.239,7.963-29.481,27.84-25.44,48.547-3.031,1.694-6.112,1.283-9.209.226-3.821-26.76,8.245-48.552,32.044-57.809a30.423,30.423,0,0,1,3.833-.956C1439.518,1134.355,1438.233,1137.578,1437.881,1140.917Z" transform="translate(-12.477 -9.618)"/>
    <path id="Path_553" data-name="Path 553" class="cls-3" d="M1466.481,979.517q-.179-1.469-.356-2.939a.625.625,0,0,0-.386-.756q-.226-1.258-.454-2.513c3.429-2.6,2.327-6.739,2.963-10.074,2.687-14.108,4.729-28.337,7.047-42.515.392-2.42-.418-3.839-2.939-3.581-8.459.871-17.04.428-25.4,2.352l-.134-1.167c3.314-8.909,3.324-8.962,13.606-6.993,4.254.814,8.455,1.9,12.68,2.878,1.4.323,2.82,2.155,4.109.961,1.545-1.435.8-3.5.057-5.291a16.942,16.942,0,0,1-.5-1.627l.762-1.124c1.991,1.426,2.959,2.931,2.416,5.768-3.008,15.713-5.732,31.481-8.53,47.235-.833,4.689-1.461,9.417-2.449,14.071C1468.573,976.078,1468.755,978.433,1466.481,979.517Z" transform="translate(-13.375 -5.082)"/>
    <path id="Path_554" data-name="Path 554" class="cls-10" d="M1459.355,1010.334c2.516.027,2.5-2.512,3.793-3.729-.554,7.382-1.42,14.7-4.213,21.645l-1.877-1.381q.128-3.37.253-6.746C1459.572,1017.19,1459.941,1013.863,1459.355,1010.334Z" transform="translate(-13.582 -7.098)"/>
    <path id="Path_555" data-name="Path 555" class="cls-11" d="M1444.924,1104.467q-.281-1.477-.563-2.952l1.387-.2A2.646,2.646,0,0,1,1444.924,1104.467Z" transform="translate(-13.325 -9.018)"/>
    <path id="Path_556" data-name="Path 556" class="cls-3" d="M1357.181,1096.331c11.416-11.88,23.558-22.811,38.871-29.553,1.823-.8,4.069-2.939,5.618-1.1.921,1.093.49,4.326-.5,5.833-2.7,4.128-1.815,9.931-6.307,13.115-1.107.206-2.589.025-3.265.676-6.023,5.821-13.68,9.755-19.055,16.279-8.351,10.135-15.816,20.868-19.958,33.489-3.2,9.742-6.057,19.6-5.958,30.022a34.357,34.357,0,0,1-10.18,1.117c-107.134-.947-214.445,1.92-321.474-1.275-4.438.21-6.813-2.667-7.421-7.135-2.626-28.949-15.6-56.3-40.17-72.766-6.6-4.571-13.3-8.81-21.21-10.777-1.844-.459-3.787-.965-4.207-3.312,3.987-.828,7.694,1.685,11.67.98,34.056,4.5,68.1,9.529,101.215,18.924,4.919,1.335,9.351,4.506,14.747,4.071,1.652,5.028.954,10.236,1.176,15.374.985,24.653,24.051,36.951,45.971,36.208,69.476.333,138.953.135,208.432.124,8.58,0,11.671-2.449,13.227-10.972a76.072,76.072,0,0,1,3.781-13.751C1345.784,1112.537,1352.21,1104.868,1357.181,1096.331Z" transform="translate(-3.142 -8.281)"/>
    <path id="Path_557" data-name="Path 557" d="M1150.347,925.876c11.207-2.254,22.3-5.3,33.9-4.87,3.607,1.906,7.622,1.347,11.2.784,17.122-2.687,28.876,16.851,29.941,29.076.776,8.916.077,17.958.2,26.943.039,2.792-1.222,3.959-3.658,4.972-4.432,1.846-9.085,2.281-13.726,3.037a327.964,327.964,0,0,1-35.637,3.84c-7.976.411-16.01-.745-23.946-.784-19.1-.1-37.924-2.652-56.743-5.156-5.29-.7-11.273.588-15.955-3.385,20-22.782,42.835-41.728,71.5-52.779A21.59,21.59,0,0,0,1150.347,925.876Z" transform="translate(-5.857 -5.363)"/>
    <path id="Path_558" data-name="Path 558" d="M1075.607,980.241c4.682,3.973,10.666,2.681,15.955,3.385,18.818,2.506,37.637,5.059,56.743,5.156,7.936.04,15.97,1.2,23.946.784a327.8,327.8,0,0,0,35.638-3.841c4.64-.752,9.294-1.186,13.726-3.037,2.436-1.014,3.7-2.181,3.658-4.973-.128-8.984.571-18.027-.2-26.943-1.064-12.222-12.819-31.764-29.941-29.075-3.572.561-7.588,1.121-11.194-.784,19.5-1.387,39.026-.708,58.542-.731,6.234-.008,7.152,3.919,8.292,9.5,5.238,25.027,4.74,50.648,3.213,76.034l-1.568.5-182.24-.344-2.533.086c-8.51-3.943-8.72-4.749-3.655-12.755A48.119,48.119,0,0,1,1075.607,980.241Z" transform="translate(-5.547 -5.344)"/>
    <path id="Path_559" data-name="Path 559" class="cls-3" d="M1067.786,1007.805l2.532-.086q.176,2.767.353,5.536c1.726,19.073,1.446,38.317,3.315,57.376.754,8.477-.341,17.108,1.988,25.445.016,4.017-.106,8.041.078,12.051.006,22.831,22.829,35.344,43.391,34.923,38.651.145,77.3.029,115.956.1,3.362.007,4.628-1.236,5.05-4.6,1.256-9.993,2.892-19.942,4.379-29.906l.456-4.2c1.708-3.458.276-7.19.909-10.727,3.527-19.72,4.852-39.657,5.512-59.628.217-6.5,2.246-13.082-.061-19.594l.913-6.422,1.568-.5,1.156,1.078c-1.627,33.016-2.8,66.1-7.751,98.825-1.666,9.951-2.229,20.071-4.63,29.913-.969,3.975.163,5.844,4.832,5.812,27-.186,54-.076,81-.106,5.78-.006,9.581-2.893,10.189-8.669,1.249-11.838,7.029-21.7,12.96-31.521,1.944-3.219,3.723-6.767,7.558-8.352.212.209.428.412.648.616-4.968,8.539-11.393,16.207-15,25.576a76.064,76.064,0,0,0-3.781,13.752c-1.559,8.523-4.65,10.972-13.227,10.972-69.477.012-138.956.208-208.432-.123-21.871.765-45.031-11.6-45.971-36.209-.218-5.137.479-10.345-1.176-15.374q-.159-6.827-.316-13.656Q1069.986,1043.953,1067.786,1007.805Z" transform="translate(-5.692 -7.118)"/>
    <path id="Path_560" data-name="Path 560" class="cls-1" d="M833.3,1059.242c10.312-5.931,19.45-9.373,31.62-7.2,4.659,3.908,1.626,7.74-.569,11.033-7.433,11.14-18.125,18.436-29.9,24.35-4.451,2.236-8.89,4.548-13.794,5.573-5.159,1.077-6.875-.295-6.216-5.4.449-3.475-1.078-3.489-3.521-3.076-1.885.318-3.777.588-5.666.882a31.969,31.969,0,0,1,6.354-13c2.3.49,4.387-.151,6.583-.889C824.811,1069.292,827.96,1062.936,833.3,1059.242Z" transform="translate(-0.371 -8.006)"/>
    <path id="Path_561" data-name="Path 561" class="cls-3" d="M1069.883,1081.379q.159,6.828.317,13.656c-5.4.43-9.828-2.734-14.747-4.072-33.112-9.395-67.158-14.42-101.215-18.924,3.117-2.245,6.717-1.292,9.942-.944,19.374,2.086,38.854,3.709,58,7.133,10.359,1.852,21,3.1,31.074,6.681C1059.376,1087.087,1065.781,1089.3,1069.883,1081.379Z" transform="translate(-3.391 -8.395)"/>
    <path id="Path_562" data-name="Path 562" class="cls-9" d="M803.206,1095.107c-1.062-1.372-2.725-2.743.028-4.079A4.838,4.838,0,0,1,803.206,1095.107Z" transform="translate(-0.299 -8.81)"/>
    <path id="Path_563" data-name="Path 563" class="cls-12" d="M1036.192,995.792c.018-.763.5-.882,1.123-.808Z" transform="translate(-5.052 -6.862)"/>
    <path id="Path_564" data-name="Path 564" class="cls-1" d="M1390.488,711.017c7.634,15.277-2.039,35.583-17.169,43.328-27.469,15.013-60.427-13.7-49.879-43.448l23.375-.6C1361.355,711.035,1375.933,710.749,1390.488,711.017Z" transform="translate(-10.833 -1.093)"/>
    <path id="Path_565" data-name="Path 565" class="cls-9" d="M1391.008,710.511c-14.557-.288-29.133.009-43.673-.717q-.134-11.17-.266-22.351c17-6.508,35.947,2.2,43.952,20.2q-.091,1.365-.18,2.725Z" transform="translate(-11.352 -0.586)"/>
    <path id="Path_567" data-name="Path 567" class="cls-6" d="M1391.747,710.831q.092-1.361.18-2.725C1392.8,709.075,1393.686,710.045,1391.747,710.831Z" transform="translate(-12.258 -1.048)"/>
    <path id="Path_568" data-name="Path 568" class="cls-13" d="M833.436,1059.4c-5.345,3.694-8.493,10.049-15.1,12.272-2.2.739-4.281,1.372-6.583.888a14.329,14.329,0,0,1,5.991-10.018C823.348,1063.369,827.959,1059.219,833.436,1059.4Z" transform="translate(-0.503 -8.169)"/>
    <path id="Path_569" data-name="Path 569" class="cls-7" d="M1501.127,1181.426c-.286,1.512.366,3.311-1.346,4.383C1497.6,1183.541,1499.483,1182.52,1501.127,1181.426Z" transform="translate(-14.428 -10.642)"/>
    <path id="Path_570" data-name="Path 570" class="cls-14" d="M1502.359,1156.476l.707-.588c.22.349.439.7.657,1.046-.294.114-.629.372-.871.3C1502.637,1157.179,1502.526,1156.755,1502.359,1156.476Z" transform="translate(-14.5 -10.124)"/>
    <path id="Path_571" data-name="Path 571" class="cls-3" d="M1251.247,1105.691c4.937-32.73,6.161-65.807,7.752-98.825,1.3-2.076,1.093-4.392,1.092-6.685-.007-12.247-.141-24.493.047-36.73a118.663,118.663,0,0,0-3.777-31.646,25.447,25.447,0,0,1-.834-5.031c-.355-7.257-.317-7.26,7.153-7-.985,7.308,1.338,14.3,2.081,21.448,1.329,12.809,2.939,25.59,4.434,38.383q.076,13.138.157,26.278c.072,7.838,2.852,11.5,9.586,11.351,17.6-.4,35.11,1.693,52.71,1.274,29.83-.707,59.631,1.851,89.471,1.15a10.949,10.949,0,0,1,1.145.086c-1.84,12.438-8.5,23.69-9.467,36.383-.337.039-.674.076-1.011.107-.446-.573-.773-.5-.98.186l-.153.1c-4.365-.235-7.79,2.735-11.988,3.391a67.61,67.61,0,0,0-27.262,10.973c-10.255,6.84-20.717,13.273-32.348,17.672a243.327,243.327,0,0,1-49.88,13.4C1276.618,1103.85,1264.121,1106.838,1251.247,1105.691Z" transform="translate(-9.411 -5.337)"/>
    <path id="Path_572" data-name="Path 572" class="cls-3" d="M1251.144,1108.521c12.875,1.147,25.375-1.84,37.927-3.73a243.37,243.37,0,0,0,49.882-13.4c11.631-4.4,22.093-10.832,32.348-17.672a67.622,67.622,0,0,1,27.262-10.973c4.2-.656,7.622-3.625,11.988-3.391-5.571,5.089-13.12,6.466-19.37,10.416a133.067,133.067,0,0,0-24.9,20.533,14.432,14.432,0,0,0-3.22,5.3c-3.841,1.58-5.618,5.129-7.561,8.347-5.931,9.82-11.712,19.684-12.961,31.522-.609,5.776-4.409,8.661-10.189,8.669-27,.03-54-.081-81,.1-4.67.032-5.8-1.837-4.832-5.812C1248.916,1128.592,1249.476,1118.473,1251.144,1108.521Z" transform="translate(-9.308 -8.167)"/>
    <path id="Path_573" data-name="Path 573" class="cls-3" d="M1355.36,1165.5c-.1-10.417,2.76-20.273,5.958-30.014,4.142-12.619,11.607-23.354,19.958-33.489,5.375-6.522,13.03-10.457,19.055-16.278.676-.653,2.156-.47,3.265-.676-1.674,8.818-5.878,16.7-9.7,24.63-7.974,16.542-16.729,32.693-28.5,46.941C1362.562,1160.049,1360.028,1164.035,1355.36,1165.5Z" transform="translate(-11.521 -8.688)"/>
    <path id="Path_574" data-name="Path 574" class="cls-3" d="M1416.14,1058.12c.969-12.694,7.63-23.947,9.466-36.386a9.376,9.376,0,0,1,1.011-.189c9.682,1.407,19.1.832,28.162-3.309,2.469-1.13,1.5,1.1,1.7,2.115q-.126,3.374-.253,6.748c-3.406,3.933-4.382,9.107-6.735,13.593-4.337,8.266-9.316,14.328-19.594,14.545C1425.3,1055.334,1420.727,1057.107,1416.14,1058.12Z" transform="translate(-12.752 -7.328)"/>
    <path id="Path_575" data-name="Path 575" class="cls-8" d="M977.036,1156.991c-2.352-3.284-5.154-6.112-7.213-9.761-5.521-9.78-12.835-18.1-23.6-22.534-2.65-1.09-3.94-2.792-3.809-5.616,5.36.98,9.725,4.2,13.6,7.489C964.29,1133.575,975.981,1145.621,977.036,1156.991Z" transform="translate(-3.151 -9.378)"/>
    <path id="Path_576" data-name="Path 576" class="cls-8" d="M980.886,1190.026c-4.719-1.944-1.22-6.043-1.153-8.277.158-5.255-2.449-10.674.252-15.835,3.511,7.4,2.749,15.317,2.672,23.134C982.653,1189.379,981.5,1189.7,980.886,1190.026Z" transform="translate(-3.881 -10.327)"/>
    <path id="Path_577" data-name="Path 577" class="cls-8" d="M854.311,1152.966c-1.328,5.849-1.716,11.952-4.66,17.368C848.246,1163.749,848.934,1157.728,854.311,1152.966Z" transform="translate(-1.258 -10.065)"/>
    <path id="Path_578" data-name="Path 578" class="cls-8" d="M979.857,1163.5c-3.193-.55-2.008-2.992-2.109-4.882C980.438,1159.381,979.92,1161.537,979.857,1163.5Z" transform="translate(-3.864 -10.18)"/>
    <path id="Path_579" data-name="Path 579" class="cls-15" d="M1414.1,1059.238c.209-.69.536-.76.98-.185A1.674,1.674,0,0,1,1414.1,1059.238Z" transform="translate(-12.711 -8.154)"/>
    <path id="Path_580" data-name="Path 580" class="cls-4" d="M965.071,1178.839c.047,28.427-22.875,51.632-50.816,51.452-67.389-2.67-67.645-98.863-.293-101.911C942.025,1128.255,965.025,1150.957,965.071,1178.839Zm-51.442,41.6a41.24,41.24,0,1,0,1.232-82.471c-22.169-.508-41.53,18.078-41.811,40.139-.3,23.485,17.519,42.074,40.581,42.331Z" transform="translate(-1.553 -9.567)"/>
    <path id="Path_581" data-name="Path 581" d="M1269.427,979.605c-1.494-12.792-3.1-25.571-4.435-38.383-.742-7.143-3.066-14.14-2.081-21.448l123.608.088a5.487,5.487,0,0,0,1.492.75c18.28,2.791,35.5,8.3,50.5,19.569a7.244,7.244,0,0,0,2.149.712c2.572,5.134,8.479,7.6,10.521,13.155-2.848,9.817-9.511,16.4-18.652,20.056a116.174,116.174,0,0,1-24.17,6.374,259.175,259.175,0,0,1-43.72,3.536c-30.348.2-60.652.278-90.911-2.277-2.59-.126-2.8-1.815-3.491-3.429-.15.068-.382.1-.435.211A9.4,9.4,0,0,0,1269.427,979.605Z" transform="translate(-9.642 -5.338)"/>
    <path id="Path_582" data-name="Path 582" class="cls-3" d="M1443.221,940.871a7.252,7.252,0,0,1-2.149-.712c-15-11.267-32.218-16.778-50.5-19.569a5.523,5.523,0,0,1-1.491-.749c18.854-.593,37.74.327,56.57-1.286.045.393.089.781.132,1.168A131.678,131.678,0,0,1,1443.221,940.871Z" transform="translate(-12.204 -5.314)"/>
    <path id="Path_583" data-name="Path 583" class="cls-3" d="M1423.65,1021.336a9.566,9.566,0,0,0-1.011.19c-30.21.471-60.405-1.846-90.614-1.236-17.6.417-35.116-1.676-52.71-1.274-6.734.153-9.514-3.512-9.585-11.351,52.08,1.2,104.264.8,156.29,2.871Q1424.831,1015.933,1423.65,1021.336Z" transform="translate(-9.785 -7.12)"/>
    <path id="Path_584" data-name="Path 584" class="cls-3" d="M1444.342,940.845a131.725,131.725,0,0,0,2.563-21.15c8.361-1.926,16.943-1.484,25.4-2.352,2.52-.259,3.331,1.162,2.939,3.582-2.319,14.177-4.36,28.407-7.047,42.514-.636,3.331.464,7.471-2.963,10.074-3.574-6.442-5.36-13.834-10.373-19.511C1452.821,948.443,1446.913,945.979,1444.342,940.845Z" transform="translate(-13.324 -5.289)"/>
    <path id="Path_585" data-name="Path 585" class="cls-3" d="M1426.834,1021.387q1.181-5.4,2.367-10.8c9.844-.882,19.693-.1,29.544-.181.588,3.527.214,6.858-2.045,9.791-.2-1.014.765-3.246-1.7-2.116C1445.943,1022.221,1436.516,1022.795,1426.834,1021.387Z" transform="translate(-12.969 -7.171)"/>
    <path id="Path_586" data-name="Path 586" class="cls-16" d="M1466.126,977.239a.625.625,0,0,1,.386.756C1465.955,977.96,1465.857,977.694,1466.126,977.239Z" transform="translate(-13.763 -6.503)"/>
    <path id="Path_587" data-name="Path 587" class="cls-4" d="M1304.588,1229.8c-7.3.173-15.1.555-13.308-9.222.784-4.5,1.653-8.984,2.567-13.46.469-2.3,1.334-4.572,3.625-5.553,7.207-3.09,14.76-2.939,22.193-1.331,2.576.56,3.311,3.459,2.911,6.179-.694,4.71-1.235,9.45-2.15,14.118C1319.06,1227.5,1314.932,1229.818,1304.588,1229.8Z" transform="translate(-10.217 -11)"/>
    <path id="Path_588" data-name="Path 588" class="cls-3" d="M1250.91,1008.331l1.7,5.9c-7.471,4.513-15.55,5.245-24.05,5.211q-71.17-.282-142.346-.03c-6.253.014-11.984-.492-15.847-6.406l2.792-5Z" transform="translate(-5.744 -7.127)"/>
    <path id="Path_589" data-name="Path 589" class="cls-3" d="M1070.731,1013.373c3.854,5.42,9.427,5.895,15.488,5.878q71.175-.163,142.346.029c8.157.032,15.926-.639,23.141-4.682,2.306,6.512.276,13.089.06,19.595-.659,19.971-1.98,39.907-5.512,59.628-.633,3.537.8,7.267-.911,10.726-.722-6.513-.7-6.479-6.213-3.271a15.663,15.663,0,0,1-4.185,1.727,135.911,135.911,0,0,1-35.058,3.233c-17.616-.483-35.29-.6-52.871-2.962-20.6-2.767-41.541-2.939-61.86-8.006-1.625-.4-3.113-.2-3.279,1.99l-5.839-1.069c-2.329-8.338-1.235-16.969-1.989-25.445C1072.176,1051.685,1072.462,1032.448,1070.731,1013.373Z" transform="translate(-5.752 -7.236)"/>
    <path id="Path_590" data-name="Path 590" class="cls-3" d="M1076.144,1097.909l5.838,1.07c32.993,9.442,67.617,11.207,101.719,12.543,20.416.588,40.9.963,61.3-1.056-1.487,9.965-3.123,19.911-4.38,29.906-.423,3.367-1.688,4.611-5.05,4.6-38.651-.067-77.3.049-115.956-.1-20.548.422-43.4-12.1-43.391-34.925C1076.039,1105.95,1076.156,1101.926,1076.144,1097.909Z" transform="translate(-5.861 -8.949)"/>
    <path id="Path_591" data-name="Path 591" class="cls-3" d="M1245.121,1110.443c-20.4,2.02-40.882,1.642-61.3,1.056-34.1-1.336-68.726-3.1-101.719-12.543.167-2.186,1.655-2.4,3.281-1.991,20.317,5.072,41.256,5.24,61.86,8.007,17.582,2.363,35.255,2.48,52.871,2.961a135.9,135.9,0,0,0,35.058-3.233,15.654,15.654,0,0,0,4.187-1.726c5.512-3.208,5.486-3.243,6.212,3.27Q1245.35,1108.344,1245.121,1110.443Z" transform="translate(-5.982 -8.927)"/>
    <path id="Path_592" data-name="Path 592" d="M913.826,1220.64c-23.062-.259-40.881-18.848-40.581-42.332.281-22.061,19.643-40.648,41.811-40.139a41.241,41.241,0,1,1-1.232,82.472Zm.327-64.433c-28.676.509-32,40.794-4.331,46.675a23.557,23.557,0,0,0,27.875-23.526c.139-12.58-10.667-23.206-23.545-23.147Z" transform="translate(-1.749 -9.765)"/>
    <path id="Path_593" data-name="Path 593" class="cls-4" d="M914.78,1156c13.081-.06,24.059,10.735,23.917,23.514-.71,31.294-45.08,32.675-47.785,1.431A23.725,23.725,0,0,1,914.78,1156Z" transform="translate(-2.106 -10.126)"/>
  </g>
</svg>
