<svg xmlns="http://www.w3.org/2000/svg" width="132.714" height="55.803" viewBox="0 0 132.714 55.803"><defs><style>.a{fill:#393835;}</style></defs><g transform="translate(132.714 55.803) rotate(180)"><path class="a" d="M41.493,48.254,51.112,55.5,50.9,55.8c-4.185-2.206-8.076-4.994-12.513-6.7l-.2.267.9,1.2C29.349,44.35,19.529,38.279,8.713,33.351c.775.61,1.327,1.061,1.9,1.488a13.023,13.023,0,0,1,1.6,1.3A81.914,81.914,0,0,1,0,28.759,155.884,155.884,0,0,1,19.974,18.339l-6.469,4.2.214.337C21.714,19.6,28.4,14.145,35.66,9.583l-5.378,5,.219.3a33.1,33.1,0,0,0,2.965-1.955c4.521-3.7,9-7.449,13.5-11.173C47.7,1.151,48.461.585,49.21,0l.358.309L44.895,6.827l.1.134,5.585-4.428.2.126L45.9,12.526l.165.1L49.2,8.5l.338.233c-2.41,5.121-4.735,10.291-8.782,14.754.908-.177,1.627-.363,2.358-.452a73.96,73.96,0,0,1,7.53-.826q31.557-.56,63.116-.978c.792-.012,1.585,0,2.378,0q.027.274.054.548l-12.187,2.6q.033.236.067.471l27.795-2.832.031.148c-4.776.9-9.543,1.854-14.332,2.681q-7.316,1.264-14.667,2.319c-4.854.706-9.724,1.3-14.567,2.209,7.41-.457,14.823-.866,22.229-1.386,7.37-.519,14.732-1.151,22.1-1.733l.051.408c-1.692.369-3.378.769-5.077,1.1-6.936,1.36-13.853,2.841-20.822,4-4.911.817-9.9,1.183-14.849,1.76-7.234.844-14.466,1.707-21.7,2.544-5.612.649-11.227,1.271-16.841,1.9-2.846.321-5.692.636-8.537.963-.324.037-.64.136-1.041.224,2.032,5.2,5.083,9.746,8.051,14.462L41.736,47.908Z" transform="translate(0 0)"/></g></svg>