<svg xmlns="http://www.w3.org/2000/svg" xmlns:xlink="http://www.w3.org/1999/xlink" width="320" height="286" viewBox="0 0 320 286"><defs><style>.a,.f{fill:none;}.a{stroke:#f28d2c;stroke-width:8px;}.b{fill:#fff;}.c{fill:#41c0f0;}.d{fill:#9fbf9d;}.e{stroke:none;}.g{filter:url(#c);}.h{filter:url(#a);}</style><filter id="a" x="0" y="0" width="320" height="286" filterUnits="userSpaceOnUse"><feOffset dy="3" input="SourceAlpha"/><feGaussianBlur stdDeviation="3" result="b"/><feFlood flood-opacity="0.161"/><feComposite operator="in" in2="b"/></filter><filter id="c" x="0" y="0" width="320" height="286" filterUnits="userSpaceOnUse"><feOffset dx="3" dy="6" input="SourceAlpha"/><feGaussianBlur stdDeviation="5" result="d"/><feFlood flood-opacity="0.161" result="e"/><feComposite operator="out" in="SourceGraphic" in2="d"/><feComposite operator="in" in="e"/><feComposite operator="in" in2="SourceGraphic"/></filter></defs><g transform="translate(-1364 -3422)"><g data-type="innerShadowGroup"><g class="h" transform="matrix(1, 0, 0, 1, 1364, 3422)"><g class="a" transform="translate(9 6)"><rect class="e" width="302" height="268" rx="134"/><rect class="f" x="4" y="4" width="294" height="260" rx="130"/></g></g><g class="g" transform="matrix(1, 0, 0, 1, 1364, 3422)"><rect class="b" width="302" height="268" rx="134" transform="translate(9 6)"/></g><g class="a" transform="translate(1373 3428)"><rect class="e" width="302" height="268" rx="134"/><rect class="f" x="4" y="4" width="294" height="260" rx="130"/></g></g><g transform="translate(674.429 3185.804)"><path class="c" d="M849.842,441.461c-.053-.091-2.741.121-2.955-.246-.442-.291-.974-.223-2.637-3.1-10.456-18.12-20.815-36.3-31.42-54.331-3.172-5.394-5.992-10.821-7.424-16.955-5.087-21.783,8.119-45.471,29.433-52.285,17.713-5.662,33.605-2.134,46.861,10.888,10.28,10.1,14.348,22.742,12.811,37.127a44.7,44.7,0,0,1-6.2,18.151q-7.815,13.238-15.5,26.554c-7.461,12.888-13.469,20.168-20.913,33.067A6.809,6.809,0,0,1,849.842,441.461ZM849.5,381.4c14.287.466,28.016-11.433,28.092-27.769a28.02,28.02,0,1,0-56.036.083A27.731,27.731,0,0,0,849.5,381.4Z" transform="translate(0 0)"/><path class="b" d="M879.859,405.066a28.019,28.019,0,0,1,.007-56.039A28.059,28.059,0,0,1,907.951,377.3C907.876,393.633,894.147,405.532,879.859,405.066Zm.064-12.293a15.657,15.657,0,1,0-15.67-15.68A15.739,15.739,0,0,0,879.923,392.772Z" transform="translate(-30.364 -23.664)"/><path class="d" d="M901.661,414.672a15.657,15.657,0,1,1,15.619-15.54A15.766,15.766,0,0,1,901.661,414.672Z" transform="translate(-52.101 -45.563)"/></g></g></svg>