<svg xmlns="http://www.w3.org/2000/svg" xmlns:xlink="http://www.w3.org/1999/xlink" width="320" height="286" viewBox="0 0 320 286"><defs><style>.a,.f{fill:none;}.a{stroke:#f28d2c;stroke-width:8px;}.b{fill:#fff;}.c{fill:#41c0f0;}.d{fill:#9fbf9d;}.e{stroke:none;}.g{filter:url(#c);}.h{filter:url(#a);}</style><filter id="a" x="0" y="0" width="320" height="286" filterUnits="userSpaceOnUse"><feOffset dy="3" input="SourceAlpha"/><feGaussianBlur stdDeviation="3" result="b"/><feFlood flood-opacity="0.161"/><feComposite operator="in" in2="b"/></filter><filter id="c" x="0" y="0" width="320" height="286" filterUnits="userSpaceOnUse"><feOffset dx="3" dy="6" input="SourceAlpha"/><feGaussianBlur stdDeviation="5" result="d"/><feFlood flood-opacity="0.161" result="e"/><feComposite operator="out" in="SourceGraphic" in2="d"/><feComposite operator="in" in="e"/><feComposite operator="in" in2="SourceGraphic"/></filter></defs><g transform="translate(-800 -3422)"><g data-type="innerShadowGroup"><g class="h" transform="matrix(1, 0, 0, 1, 800, 3422)"><g class="a" transform="translate(9 6)"><rect class="e" width="302" height="268" rx="134"/><rect class="f" x="4" y="4" width="294" height="260" rx="130"/></g></g><g class="g" transform="matrix(1, 0, 0, 1, 800, 3422)"><rect class="b" width="302" height="268" rx="134" transform="translate(9 6)"/></g><g class="a" transform="translate(809 3428)"><rect class="e" width="302" height="268" rx="134"/><rect class="f" x="4" y="4" width="294" height="260" rx="130"/></g></g><g transform="translate(21.475 3303.445)"><path class="c" d="M1011.648,222.741l-6.115-19.194c.725-.158,1.335-.348,1.959-.418a28.159,28.159,0,0,1,11.314,1.189,19.6,19.6,0,0,0,11.572-.042,28.345,28.345,0,0,1,11.153-1.153c.39.042.781.081,1.164.162a4.639,4.639,0,0,1,.752.325l-6.062,19.03c2.345,2.275,2.31,3.562-.224,5.033a7.143,7.143,0,0,0,2.711,4.419,70.161,70.161,0,0,0,6.707,4.775c7.365,4.545,13.517,10.176,17.181,18.215a55.185,55.185,0,0,1,4.529,16.137c.5,4,.65,8.05,1,12.074.64,7.43-2.466,13.332-7.612,18.305-7.4,7.157-16.516,10.923-26.505,12.587-13.146,2.19-25.839.661-37.821-5.448a37.629,37.629,0,0,1-12.8-10.217,21.338,21.338,0,0,1-4.866-14.669c.345-7.021.868-13.99,2.676-20.824A40.661,40.661,0,0,1,1000.683,238a79.908,79.908,0,0,0,7.635-5.217,18.611,18.611,0,0,0,3.2-4.039,1.35,1.35,0,0,0-.1-1.292C1009.31,225.316,1009.3,224.581,1011.648,222.741Zm10.719,33.18c-2.361,1.534-4.62,2.548-6.282,4.173-3.914,3.826-3.676,12.912,3.948,15.32,1.975.624,3.979,1.164,5.939,1.833,1.112.379,1.921,1.288,1.519,2.45a5.5,5.5,0,0,1-1.846,2.1c-.331.271-.966.194-1.467.231a13.384,13.384,0,0,1-7.243-1.838c-1.271-.666-2.1-.436-2.656.924a30.887,30.887,0,0,1-1.524,3.185c-.708,1.284-.358,2.182.931,2.682,2.18.848,4.392,1.614,6.654,2.438.411,3.232.411,3.232,2.338,3.263,3.474.056,3.474.056,3.919-2.813,2.676-1.595,5.4-2.581,7.243-4.435,5.356-5.377,3.027-13.98-4.258-16.527-1.9-.665-3.886-1.093-5.79-1.755-.479-.166-1.1-.811-1.1-1.239a2.432,2.432,0,0,1,.885-1.647,2.286,2.286,0,0,1,1.723-.443,41.251,41.251,0,0,1,5.718,1.688c1.143.454,1.879.474,2.542-.625.609-1.008,1.313-1.958,1.946-2.951.988-1.552.939-2.11-.71-2.93-2.035-1.012-4.186-1.789-6.36-2.7-.318-2.887-.318-2.887-3.863-2.837C1022.577,253.493,1022.577,253.493,1022.367,255.921Z" transform="translate(-49.991)"/><path class="d" d="M911.806,329.064c0,2.977-.082,5.957.024,8.931a8.074,8.074,0,0,1-3.379,6.972c-3.584,2.816-7.81,4.111-12.19,4.982a56.1,56.1,0,0,1-27.618-1.183,20.294,20.294,0,0,1-8.369-4.514,8.023,8.023,0,0,1-2.591-6.159c.04-6.01.071-12.022-.011-18.031a8.416,8.416,0,0,1,3.6-7.219c3.63-2.744,7.858-4.038,12.241-4.873a55.754,55.754,0,0,1,28.252,1.532,18.66,18.66,0,0,1,7.788,4.522,7.392,7.392,0,0,1,2.262,5.433C911.783,322.66,911.806,325.862,911.806,329.064Zm-26.917-17.439-.062-.427c-4.313.622-8.677,1.011-12.92,1.953a25.4,25.4,0,0,0-7.377,3.1c-2.894,1.735-2.821,3.839.006,5.739a19.231,19.231,0,0,0,4.658,2.278,49.827,49.827,0,0,0,27.379,1.029,33.2,33.2,0,0,0,8.769-3.631c2.527-1.45,2.414-3.48,0-5.189a20.584,20.584,0,0,0-4.592-2.411A42.68,42.68,0,0,0,884.889,311.626Zm-22.41,24.859c-.408,1.9-.283,3.774,1.529,4.861a29.808,29.808,0,0,0,6.475,3.108,51.575,51.575,0,0,0,23.5,1.214,27.841,27.841,0,0,0,10.611-3.584c2.474-1.552,2.98-2.879,2.31-5.526C892.12,342.858,877.358,342.848,862.48,336.484Zm-.02-9.9c-.5,2.371.125,4.279,2.272,5.451a28.805,28.805,0,0,0,5.013,2.321,50.168,50.168,0,0,0,25.422,1.135,41.327,41.327,0,0,0,9.556-3.476c2.482-1.2,2.856-2.821,2.178-5.339C892.129,332.968,877.387,333,862.46,326.585Z" transform="translate(0 -42.57)"/><path class="d" d="M914.967,269.868a4.236,4.236,0,0,0,1.985,5.156c3.6,2.392,7.686,3.367,11.862,3.99a54.042,54.042,0,0,0,19.741-.6,10.42,10.42,0,0,1,1.177-.1c-.419,1.567-.716,3.032-1.237,4.413a1.9,1.9,0,0,1-1.428.888q-7.466.418-14.94.657a4.744,4.744,0,0,1-2.239-.6,45.467,45.467,0,0,0-17.07-4.744c-.726-.071-1.449-.169-2.172-.268a3.88,3.88,0,0,1-.595-.2c-.032-.513-.094-1.059-.1-1.606-.007-4.662.047-9.326-.023-13.987a7.943,7.943,0,0,1,3.134-6.578c3.394-2.784,7.429-4.132,11.635-5a56.028,56.028,0,0,1,29.885,1.471A16.973,16.973,0,0,1,962.72,258l-3.791,2.884c-3.795-3.9-9.362-4.91-14.992-5.635a49.474,49.474,0,0,0-22.115,1.831,20.925,20.925,0,0,0-4.688,2.236c-3.084,1.981-3.185,4.083-.012,5.83a31.851,31.851,0,0,0,8.717,3.363c9.673,2,19.29,1.8,28.642-1.845a2.421,2.421,0,0,1,.65-.007c-1.047,1.954-2,3.827-3.065,5.634a2.108,2.108,0,0,1-1.29.641c-12.026,2.647-23.827,2.519-35.187-2.914A3.821,3.821,0,0,0,914.967,269.868Z" transform="translate(-21.418 -19.244)"/><path class="d" d="M965.859,315.728c-.051.467-.075.848-.136,1.221-.631,3.879-.633,3.881-4.533,4.122-1.335.082-2.947.637-3.925.082-.894-.507-1.1-2.222-1.614-3.4-.151-.35-.3-.7-.481-1.106Z" transform="translate(-39.957 -46.209)"/><path class="b" d="M1045.1,290.974c.21-2.427.21-2.427,2.2-2.455,3.545-.05,3.545-.05,3.863,2.837,2.174.909,4.325,1.687,6.36,2.7,1.65.82,1.7,1.378.711,2.93-.633.994-1.337,1.943-1.946,2.951-.663,1.1-1.4,1.079-2.542.625a41.25,41.25,0,0,0-5.718-1.689,2.287,2.287,0,0,0-1.723.443,2.432,2.432,0,0,0-.885,1.647c0,.428.624,1.073,1.1,1.239,1.9.662,3.888,1.09,5.79,1.755,7.285,2.547,9.613,11.15,4.258,16.527-1.847,1.854-4.566,2.841-7.243,4.435-.445,2.869-.445,2.869-3.919,2.813-1.927-.031-1.927-.031-2.338-3.263-2.263-.824-4.474-1.591-6.654-2.438-1.289-.5-1.638-1.4-.931-2.682a30.875,30.875,0,0,0,1.524-3.185c.557-1.36,1.385-1.59,2.656-.924a13.384,13.384,0,0,0,7.243,1.838c.5-.037,1.135.04,1.467-.231a5.5,5.5,0,0,0,1.846-2.1c.4-1.162-.407-2.07-1.519-2.45-1.96-.669-3.964-1.209-5.939-1.833-7.624-2.408-7.862-11.494-3.948-15.32C1040.483,293.522,1042.742,292.508,1045.1,290.974Z" transform="translate(-72.727 -35.053)"/><path class="b" d="M888.165,314.646a42.679,42.679,0,0,1,15.865,2.445,20.582,20.582,0,0,1,4.592,2.411c2.411,1.709,2.524,3.739,0,5.189a33.2,33.2,0,0,1-8.769,3.631,49.827,49.827,0,0,1-27.379-1.029,19.229,19.229,0,0,1-4.658-2.278c-2.828-1.9-2.9-4-.006-5.739a25.4,25.4,0,0,1,7.377-3.1c4.242-.942,8.606-1.331,12.92-1.953Z" transform="translate(-3.275 -45.59)"/><path class="b" d="M865.686,357.063c14.878,6.364,29.64,6.373,44.422.073.67,2.647.164,3.974-2.31,5.526a27.841,27.841,0,0,1-10.611,3.584,51.575,51.575,0,0,1-23.5-1.214,29.808,29.808,0,0,1-6.475-3.108C865.4,360.837,865.278,358.966,865.686,357.063Z" transform="translate(-3.206 -63.149)"/><path class="b" d="M865.672,340.289c14.927,6.412,29.669,6.383,44.441.091.678,2.518.3,4.141-2.178,5.339a41.325,41.325,0,0,1-9.556,3.476,50.167,50.167,0,0,1-25.422-1.135,28.8,28.8,0,0,1-5.013-2.321C865.8,344.568,865.171,342.66,865.672,340.289Z" transform="translate(-3.212 -56.274)"/></g></g></svg>