<svg xmlns="http://www.w3.org/2000/svg" xmlns:xlink="http://www.w3.org/1999/xlink" width="94.949" height="87.37" viewBox="0 0 94.949 87.37">
  <defs>
    <style>
      .cls-1 {
        fill: rgba(0,0,0,0);
      }

      .cls-2 {
        clip-path: url(#clip-path);
      }

      .cls-3 {
        fill: #8dc39f;
      }

      .cls-4 {
        fill: #ff8b39;
      }

      .cls-5 {
        fill: #41c0f0;
      }

      .cls-6 {
        fill: #020508;
      }

      .cls-7 {
        fill: #2b2e34;
      }

      .cls-8 {
        fill: #fff;
      }

      .cls-9 {
        fill: #fffefd;
      }

      .cls-10 {
        fill: #43cff6;
      }
    </style>
    <clipPath id="clip-path">
      <path id="Path_105" data-name="Path 105" class="cls-1" d="M0-99.576H94.949v-87.37H0Z" transform="translate(0 186.946)"/>
    </clipPath>
  </defs>
  <g id="Wheelz_small" class="cls-2">
    <g id="Group_48" data-name="Group 48" transform="translate(51.344 17.846)">
      <path id="Path_49" data-name="Path 49" class="cls-3" d="M-24.836-15.2c0,7.366-4.878,13.338-10.9,13.338s-10.9-5.972-10.9-13.338,4.878-13.338,10.9-13.338,10.9,5.971,10.9,13.338" transform="translate(46.627 28.539)"/>
    </g>
    <g id="Group_49" data-name="Group 49" transform="translate(51.156 17.658)">
      <path id="Path_50" data-name="Path 50" class="cls-3" d="M-25.05-15.415h-.188A14.741,14.741,0,0,1-28.387-6.1a9.79,9.79,0,0,1-7.559,3.837A9.791,9.791,0,0,1-43.5-6.1a14.744,14.744,0,0,1-3.149-9.312A14.744,14.744,0,0,1-43.5-24.728a9.789,9.789,0,0,1,7.559-3.837,9.788,9.788,0,0,1,7.559,3.837,14.741,14.741,0,0,1,3.149,9.312h.376a15.115,15.115,0,0,0-3.234-9.55,10.166,10.166,0,0,0-7.85-3.976,10.167,10.167,0,0,0-7.85,3.976,15.118,15.118,0,0,0-3.234,9.55A15.118,15.118,0,0,0-43.8-5.865a10.167,10.167,0,0,0,7.85,3.976A10.166,10.166,0,0,0-28.1-5.865a15.115,15.115,0,0,0,3.234-9.55Z" transform="translate(47.029 28.941)"/>
    </g>
    <g id="Group_50" data-name="Group 50" transform="translate(0.188 68.436)">
      <path id="Path_51" data-name="Path 51" class="cls-4" d="M-24.434-.766A2.442,2.442,0,0,0-27.5.816l-2.141,6.7L-32.508.12a2.44,2.44,0,0,0-2.541-1.543A2.441,2.441,0,0,0-37.263.29l-1.974,6.364L-41.1.811a2.442,2.442,0,0,0-3.07-1.582A2.442,2.442,0,0,0-45.757,2.3l4.1,12.831c.349.847.745,1.772,1.7,2.069a2.442,2.442,0,0,0,3.056-1.609l2.285-7.368,2.784,7.187a2.438,2.438,0,0,0,.492.783,2.427,2.427,0,0,0,1.2.854,2.442,2.442,0,0,0,3.07-1.582L-22.852,2.3a2.442,2.442,0,0,0-1.582-3.07" transform="translate(45.874 1.438)"/>
    </g>
    <g id="Group_51" data-name="Group 51" transform="translate(0 68.248)">
      <path id="Path_52" data-name="Path 52" class="cls-4" d="M-24.648-.98l.057-.179a2.629,2.629,0,0,0-.8-.126A2.631,2.631,0,0,0-27.9.545l-1.979,6.189-2.67-6.9A2.628,2.628,0,0,0-35-1.84a2.661,2.661,0,0,0-.285.015l.021.187-.009-.188A2.629,2.629,0,0,0-37.656.02l-1.8,5.794L-41.14.54a2.631,2.631,0,0,0-2.5-1.83,2.629,2.629,0,0,0-.8.126,2.63,2.63,0,0,0-1.829,2.5,2.628,2.628,0,0,0,.125.8l4.106,12.838,0,.007a6.568,6.568,0,0,0,.643,1.277,2.235,2.235,0,0,0,1.179.9,2.627,2.627,0,0,0,.78.119,2.631,2.631,0,0,0,2.511-1.852L-34.8,8.577l2.589,6.685a2.627,2.627,0,0,0,.53.843l.137-.128-.15.113a2.618,2.618,0,0,0,1.3.92,2.629,2.629,0,0,0,.8.126,2.631,2.631,0,0,0,2.5-1.83l4.208-13.159a2.629,2.629,0,0,0,.126-.8,2.631,2.631,0,0,0-1.83-2.5l-.057.179-.057.179a2.255,2.255,0,0,1,1.568,2.147,2.257,2.257,0,0,1-.107.687l-4.209,13.159A2.255,2.255,0,0,1-29.6,16.76a2.244,2.244,0,0,1-.687-.108,2.24,2.24,0,0,1-1.11-.788l-.006-.008-.007-.007a2.234,2.234,0,0,1-.454-.722l-2.978-7.691-2.445,7.884a2.257,2.257,0,0,1-2.153,1.587,2.247,2.247,0,0,1-.668-.1,1.858,1.858,0,0,1-.983-.757,6.234,6.234,0,0,1-.6-1.2l-.173.072.179-.057-4.1-12.831A2.258,2.258,0,0,1-45.9,1.34,2.254,2.254,0,0,1-44.331-.806a2.247,2.247,0,0,1,.687-.108A2.256,2.256,0,0,1-41.5.654l2.05,6.411L-37.3.131A2.254,2.254,0,0,1-35.254-1.45h.011A2.252,2.252,0,0,1-35-1.464,2.251,2.251,0,0,1-32.9-.026l3.055,7.888,2.3-7.2A2.256,2.256,0,0,1-25.393-.909a2.247,2.247,0,0,1,.687.108Z" transform="translate(46.275 1.84)"/>
    </g>
    <g id="Group_52" data-name="Group 52" transform="translate(25.045 68.943)">
      <path id="Path_53" data-name="Path 53" class="cls-4" d="M-12.2,0A2.066,2.066,0,0,0-14.27,2.067v4.32h-4.509V2.067A2.067,2.067,0,0,0-20.845,0a2.066,2.066,0,0,0-2.066,2.067V15.592a2.066,2.066,0,0,0,2.066,2.067,2.067,2.067,0,0,0,2.067-2.067V10.9h4.509v4.7A2.066,2.066,0,0,0-12.2,17.658a2.066,2.066,0,0,0,2.066-2.067V2.067A2.066,2.066,0,0,0-12.2,0" transform="translate(22.911)"/>
    </g>
    <g id="Group_53" data-name="Group 53" transform="translate(24.857 68.755)">
      <path id="Path_54" data-name="Path 54" class="cls-4" d="M-12.418-.214V-.4a2.254,2.254,0,0,0-2.254,2.255V5.985H-18.8V1.853A2.255,2.255,0,0,0-21.059-.4a2.254,2.254,0,0,0-2.254,2.255V15.378a2.255,2.255,0,0,0,2.254,2.255A2.255,2.255,0,0,0-18.8,15.378V10.869h4.133v4.509a2.255,2.255,0,0,0,2.254,2.255,2.255,2.255,0,0,0,2.254-2.255V1.853A2.254,2.254,0,0,0-12.418-.4v.376a1.871,1.871,0,0,1,1.328.55,1.874,1.874,0,0,1,.551,1.329V15.378a1.873,1.873,0,0,1-.551,1.328,1.873,1.873,0,0,1-1.328.551,1.873,1.873,0,0,1-1.328-.551,1.873,1.873,0,0,1-.551-1.328V10.493H-19.18v4.884a1.873,1.873,0,0,1-.551,1.328,1.873,1.873,0,0,1-1.328.551,1.873,1.873,0,0,1-1.328-.551,1.871,1.871,0,0,1-.55-1.328V1.853a1.872,1.872,0,0,1,.55-1.329,1.871,1.871,0,0,1,1.328-.55,1.871,1.871,0,0,1,1.328.55,1.874,1.874,0,0,1,.551,1.329V6.361H-14.3V1.853A1.874,1.874,0,0,1-13.746.524a1.871,1.871,0,0,1,1.328-.55Z" transform="translate(23.313 0.402)"/>
    </g>
    <g id="Group_54" data-name="Group 54" transform="translate(39.885 68.755)">
      <path id="Path_55" data-name="Path 55" class="cls-4" d="M-12.549-5.567A2.139,2.139,0,0,0-10.41-7.706v-.606a2.139,2.139,0,0,0-2.139-2.139h-8.872A2.139,2.139,0,0,0-23.56-8.312V5.068a2.139,2.139,0,0,0,2.139,2.139h8.872A2.139,2.139,0,0,0-10.41,5.068V4.462a2.139,2.139,0,0,0-2.139-2.139h-6.127V.82h4.884a2.254,2.254,0,0,0,2.254-2.254,2.254,2.254,0,0,0-2.254-2.254h-4.884V-5.567Z" transform="translate(23.56 10.451)"/>
    </g>
    <g id="Group_55" data-name="Group 55" transform="translate(39.697 68.567)">
      <path id="Path_56" data-name="Path 56" class="cls-4" d="M-12.763-5.781v.188A2.327,2.327,0,0,0-10.436-7.92v-.606a2.327,2.327,0,0,0-2.327-2.327h-8.872a2.327,2.327,0,0,0-2.327,2.327V4.854a2.327,2.327,0,0,0,2.327,2.327h8.872a2.327,2.327,0,0,0,2.327-2.327V4.248a2.327,2.327,0,0,0-2.327-2.327H-18.7V.794h4.7a2.442,2.442,0,0,0,2.442-2.442A2.442,2.442,0,0,0-14.005-4.09h-4.7v-1.5h5.939v-.376h-6.314v2.254h5.072a2.061,2.061,0,0,1,1.461.605,2.06,2.06,0,0,1,.605,1.461,2.058,2.058,0,0,1-.605,1.461,2.058,2.058,0,0,1-1.461.605h-5.072V2.3h6.314a1.944,1.944,0,0,1,1.38.572,1.944,1.944,0,0,1,.572,1.38v.606a1.944,1.944,0,0,1-.572,1.38,1.944,1.944,0,0,1-1.38.572h-8.872a1.944,1.944,0,0,1-1.38-.572,1.944,1.944,0,0,1-.572-1.38V-8.526a1.944,1.944,0,0,1,.572-1.38,1.944,1.944,0,0,1,1.38-.572h8.872a1.944,1.944,0,0,1,1.38.572,1.944,1.944,0,0,1,.572,1.38v.606a1.944,1.944,0,0,1-.572,1.38,1.944,1.944,0,0,1-1.38.572Z" transform="translate(23.962 10.853)"/>
    </g>
    <g id="Group_56" data-name="Group 56" transform="translate(35.189 16.343)">
      <path id="Path_57" data-name="Path 57" class="cls-5" d="M-41.963-23.337c0,11.309-8.242,20.476-18.41,20.476s-18.41-9.168-18.41-20.476,8.242-20.476,18.41-20.476,18.41,9.168,18.41,20.476" transform="translate(78.783 43.813)"/>
    </g>
    <g id="Group_57" data-name="Group 57" transform="translate(35.001 16.155)">
      <path id="Path_58" data-name="Path 58" class="cls-5" d="M-42.178-23.551h-.188A21.434,21.434,0,0,1-47.709-9.2,17.288,17.288,0,0,1-60.587-3.263,17.288,17.288,0,0,1-73.466-9.2a21.434,21.434,0,0,1-5.344-14.353A21.434,21.434,0,0,1-73.466-37.9a17.288,17.288,0,0,1,12.878-5.935A17.288,17.288,0,0,1-47.709-37.9a21.434,21.434,0,0,1,5.344,14.353h.376a21.807,21.807,0,0,0-5.44-14.6,17.663,17.663,0,0,0-13.157-6.06,17.664,17.664,0,0,0-13.157,6.06,21.8,21.8,0,0,0-5.44,14.6,21.8,21.8,0,0,0,5.44,14.6,17.664,17.664,0,0,0,13.157,6.06A17.663,17.663,0,0,0-47.43-8.947a21.807,21.807,0,0,0,5.44-14.6Z" transform="translate(79.185 44.215)"/>
    </g>
    <g id="Group_58" data-name="Group 58" transform="translate(54.914 68.755)">
      <path id="Path_59" data-name="Path 59" class="cls-4" d="M-12.549-5.567A2.139,2.139,0,0,0-10.41-7.706v-.606a2.139,2.139,0,0,0-2.139-2.139h-8.872A2.139,2.139,0,0,0-23.56-8.312V5.068a2.139,2.139,0,0,0,2.139,2.139h8.872A2.139,2.139,0,0,0-10.41,5.068V4.462a2.139,2.139,0,0,0-2.139-2.139h-6.127V.82h4.884a2.254,2.254,0,0,0,2.254-2.254,2.254,2.254,0,0,0-2.254-2.254h-4.884V-5.567Z" transform="translate(23.56 10.451)"/>
    </g>
    <g id="Group_59" data-name="Group 59" transform="translate(54.726 68.567)">
      <path id="Path_60" data-name="Path 60" class="cls-4" d="M-12.763-5.781v.188A2.327,2.327,0,0,0-10.436-7.92v-.606a2.327,2.327,0,0,0-2.327-2.327h-8.872a2.327,2.327,0,0,0-2.327,2.327V4.854a2.327,2.327,0,0,0,2.327,2.327h8.872a2.327,2.327,0,0,0,2.327-2.327V4.248a2.327,2.327,0,0,0-2.327-2.327H-18.7V.794h4.7a2.442,2.442,0,0,0,2.442-2.442A2.442,2.442,0,0,0-14.005-4.09h-4.7v-1.5h5.939v-.376h-6.314v2.254h5.072a2.061,2.061,0,0,1,1.461.605,2.06,2.06,0,0,1,.605,1.461,2.058,2.058,0,0,1-.605,1.461,2.058,2.058,0,0,1-1.461.605h-5.072V2.3h6.314a1.944,1.944,0,0,1,1.38.572,1.944,1.944,0,0,1,.572,1.38v.606a1.944,1.944,0,0,1-.572,1.38,1.944,1.944,0,0,1-1.38.572h-8.872a1.944,1.944,0,0,1-1.38-.572,1.944,1.944,0,0,1-.572-1.38V-8.526a1.944,1.944,0,0,1,.572-1.38,1.944,1.944,0,0,1,1.38-.572h8.872a1.944,1.944,0,0,1,1.38.572,1.944,1.944,0,0,1,.572,1.38v.606a1.944,1.944,0,0,1-.572,1.38,1.944,1.944,0,0,1-1.38.572Z" transform="translate(23.962 10.853)"/>
    </g>
    <g id="Group_60" data-name="Group 60" transform="translate(69.566 68.755)">
      <path id="Path_61" data-name="Path 61" class="cls-4" d="M-3.211-20.126h-.376a2.442,2.442,0,0,1-2.442-2.442V-35.342a2.442,2.442,0,0,1,2.442-2.442h.376A2.442,2.442,0,0,1-.769-35.342v12.774a2.442,2.442,0,0,1-2.442,2.442" transform="translate(6.029 37.784)"/>
    </g>
    <g id="Group_61" data-name="Group 61" transform="translate(69.379 68.567)">
      <path id="Path_62" data-name="Path 62" class="cls-4" d="M-3.425-20.34v-.188H-3.8a2.246,2.246,0,0,1-1.594-.66,2.246,2.246,0,0,1-.66-1.594V-35.556A2.247,2.247,0,0,1-5.4-37.15,2.248,2.248,0,0,1-3.8-37.81h.376a2.247,2.247,0,0,1,1.594.66,2.246,2.246,0,0,1,.66,1.594v12.774a2.246,2.246,0,0,1-.66,1.594,2.246,2.246,0,0,1-1.594.66v.376A2.63,2.63,0,0,0-.8-22.782V-35.556a2.63,2.63,0,0,0-2.63-2.63H-3.8a2.63,2.63,0,0,0-2.63,2.63v12.774a2.63,2.63,0,0,0,2.63,2.63h.376Z" transform="translate(6.431 38.186)"/>
    </g>
    <g id="Group_62" data-name="Group 62" transform="translate(69.566 81.153)">
      <path id="Path_63" data-name="Path 63" class="cls-4" d="M-3-5.995H1.887a2.63,2.63,0,0,0,2.63-2.63,2.63,2.63,0,0,0-2.63-2.63H-3a2.63,2.63,0,0,0-2.63,2.63A2.63,2.63,0,0,0-3-5.995" transform="translate(5.627 11.255)"/>
    </g>
    <g id="Group_63" data-name="Group 63" transform="translate(69.379 80.965)">
      <path id="Path_64" data-name="Path 64" class="cls-4" d="M-3.211-6.209v.188H1.673A2.818,2.818,0,0,0,4.491-8.839a2.818,2.818,0,0,0-2.818-2.818H-3.211A2.818,2.818,0,0,0-6.029-8.839,2.818,2.818,0,0,0-3.211-6.021V-6.4a2.434,2.434,0,0,1-1.727-.715,2.434,2.434,0,0,1-.715-1.727,2.433,2.433,0,0,1,.715-1.727,2.432,2.432,0,0,1,1.727-.716H1.673a2.432,2.432,0,0,1,1.727.716,2.433,2.433,0,0,1,.715,1.727A2.434,2.434,0,0,1,3.4-7.112,2.434,2.434,0,0,1,1.673-6.4H-3.211Z" transform="translate(6.029 11.657)"/>
    </g>
    <g id="Group_64" data-name="Group 64" transform="translate(80.388 68.755)">
      <path id="Path_65" data-name="Path 65" class="cls-4" d="M-13.359-14.131h-4.366l5.85-7.6a2.628,2.628,0,0,0,1.132-1.9,2.323,2.323,0,0,0-.87-2.247c-.034-.026-.07-.049-.106-.073a2.616,2.616,0,0,0-1.641-.577h-9.017a2.63,2.63,0,0,0-2.63,2.63,2.63,2.63,0,0,0,2.63,2.63h4.282l-5.967,7.75a2.637,2.637,0,0,0-.757,1.045,2.322,2.322,0,0,0,.642,2.913h0c.037.029.077.054.116.08a2.619,2.619,0,0,0,1.683.61h9.017a2.63,2.63,0,0,0,2.63-2.63,2.63,2.63,0,0,0-2.63-2.63" transform="translate(25.08 26.529)"/>
    </g>
    <g id="Group_65" data-name="Group 65" transform="translate(80.2 68.567)">
      <path id="Path_66" data-name="Path 66" class="cls-4" d="M-13.573-14.345v-.188h-3.984l5.617-7.3-.149-.115.106.155a2.815,2.815,0,0,0,1.213-2.04l-.186-.019.185.032a2.5,2.5,0,0,0,.038-.437,2.5,2.5,0,0,0-.978-1.99c-.044-.034-.083-.058-.114-.079l-.107.155.118-.147a2.808,2.808,0,0,0-1.759-.618H-22.59a2.818,2.818,0,0,0-2.818,2.818A2.818,2.818,0,0,0-22.59-21.3h3.9l-5.734,7.447.149.115-.121-.144a2.824,2.824,0,0,0-.811,1.12l.175.07-.167-.087a2.5,2.5,0,0,0-.284,1.16A2.505,2.505,0,0,0-24.5-9.626l.05.039h.064v-.188l-.115.149c.047.036.089.063.125.086l.106-.155-.121.144a2.806,2.806,0,0,0,1.8.654h9.017a2.818,2.818,0,0,0,2.818-2.818,2.818,2.818,0,0,0-2.818-2.818v.376a2.434,2.434,0,0,1,1.727.715,2.434,2.434,0,0,1,.715,1.727,2.433,2.433,0,0,1-.715,1.727,2.434,2.434,0,0,1-1.727.716H-22.59a2.431,2.431,0,0,1-1.563-.567l-.007-.006-.008-.005c-.042-.029-.078-.051-.107-.073l-.05-.039h-.064v.188l.115-.149a2.128,2.128,0,0,1-.831-1.691,2.127,2.127,0,0,1,.241-.986l0-.008,0-.009a2.443,2.443,0,0,1,.7-.971l.016-.014,6.212-8.068H-22.59a2.432,2.432,0,0,1-1.727-.716,2.433,2.433,0,0,1-.715-1.727,2.434,2.434,0,0,1,.715-1.727,2.434,2.434,0,0,1,1.727-.715h9.017a2.428,2.428,0,0,1,1.524.536l.006,0,.006,0c.04.027.072.048.1.067a2.128,2.128,0,0,1,.831,1.693,2.166,2.166,0,0,1-.032.372v.014A2.44,2.44,0,0,1-12.195-22.1l-.025.017-6.1,7.924h4.747Z" transform="translate(25.482 26.931)"/>
    </g>
    <g id="Group_66" data-name="Group 66" transform="translate(27.299 26.112)">
      <path id="Path_67" data-name="Path 67" class="cls-3" d="M-36.825-17.984A15.971,15.971,0,0,1-52.981-2.2a15.971,15.971,0,0,1-16.155-15.78,15.971,15.971,0,0,1,16.155-15.78,15.971,15.971,0,0,1,16.155,15.78" transform="translate(69.136 33.764)"/>
    </g>
    <g id="Group_67" data-name="Group 67" transform="translate(27.111 25.924)">
      <path id="Path_68" data-name="Path 68" class="cls-3" d="M-37.039-18.2h-.188A15.359,15.359,0,0,1-41.9-7.175,16.11,16.11,0,0,1-53.195-2.607,16.11,16.11,0,0,1-64.487-7.175,15.359,15.359,0,0,1-69.162-18.2a15.359,15.359,0,0,1,4.675-11.023A16.11,16.11,0,0,1-53.195-33.79,16.11,16.11,0,0,1-41.9-29.222,15.359,15.359,0,0,1-37.227-18.2h.376A15.736,15.736,0,0,0-41.64-29.491a16.486,16.486,0,0,0-11.555-4.675,16.486,16.486,0,0,0-11.555,4.675A15.736,15.736,0,0,0-69.538-18.2,15.736,15.736,0,0,0-64.749-6.906,16.486,16.486,0,0,0-53.195-2.231,16.486,16.486,0,0,0-41.64-6.906,15.736,15.736,0,0,0-36.851-18.2Z" transform="translate(69.538 34.166)"/>
    </g>
    <g id="Group_68" data-name="Group 68" transform="translate(32.934 8.454)">
      <path id="Path_69" data-name="Path 69" class="cls-4" d="M-30.188-16.592c0,8.04-5.929,14.559-13.244,14.559S-56.676-8.552-56.676-16.592s5.93-14.559,13.244-14.559,13.244,6.518,13.244,14.559" transform="translate(56.676 31.151)"/>
    </g>
    <g id="Group_69" data-name="Group 69" transform="translate(32.747 8.266)">
      <path id="Path_70" data-name="Path 70" class="cls-4" d="M-30.4-16.807h-.188A15.081,15.081,0,0,1-34.42-6.638a12.448,12.448,0,0,1-9.226,4.2,12.447,12.447,0,0,1-9.226-4.2A15.082,15.082,0,0,1-56.7-16.807a15.082,15.082,0,0,1,3.83-10.168,12.444,12.444,0,0,1,9.226-4.2,12.446,12.446,0,0,1,9.226,4.2,15.081,15.081,0,0,1,3.83,10.168h.376a15.456,15.456,0,0,0-3.928-10.421,12.821,12.821,0,0,0-9.5-4.325,12.821,12.821,0,0,0-9.5,4.325,15.458,15.458,0,0,0-3.928,10.421A15.457,15.457,0,0,0-53.149-6.386a12.821,12.821,0,0,0,9.5,4.325,12.821,12.821,0,0,0,9.5-4.325,15.455,15.455,0,0,0,3.928-10.421Z" transform="translate(57.077 31.553)"/>
    </g>
    <g id="Group_70" data-name="Group 70" transform="translate(29.553 17.47)">
      <path id="Path_71" data-name="Path 71" class="cls-6" d="M-41.963-20.554A18.225,18.225,0,0,1-60.373-2.52a18.225,18.225,0,0,1-18.41-18.034,18.225,18.225,0,0,1,18.41-18.034,18.225,18.225,0,0,1,18.41,18.034" transform="translate(78.783 38.588)"/>
    </g>
    <g id="Group_71" data-name="Group 71" transform="translate(29.365 17.282)">
      <path id="Path_72" data-name="Path 72" class="cls-7" d="M-42.178-20.768h-.188A17.606,17.606,0,0,1-47.7-8.15,18.359,18.359,0,0,1-60.587-2.921,18.359,18.359,0,0,1-73.473-8.15a17.606,17.606,0,0,1-5.336-12.618,17.606,17.606,0,0,1,5.336-12.618,18.359,18.359,0,0,1,12.886-5.229A18.359,18.359,0,0,1-47.7-33.385a17.606,17.606,0,0,1,5.336,12.618h.376a17.985,17.985,0,0,0-5.448-12.886A18.736,18.736,0,0,0-60.587-38.99a18.735,18.735,0,0,0-13.149,5.336,17.985,17.985,0,0,0-5.448,12.886A17.985,17.985,0,0,0-73.737-7.882,18.735,18.735,0,0,0-60.587-2.546,18.736,18.736,0,0,0-47.438-7.882,17.985,17.985,0,0,0-41.99-20.768Z" transform="translate(79.185 38.99)"/>
    </g>
    <g id="Group_72" data-name="Group 72" transform="translate(41.952 32.499)">
      <path id="Path_73" data-name="Path 73" class="cls-8" d="M-1.285-.856h-.752a.376.376,0,0,1-.376-.376.376.376,0,0,1,.376-.376h.752a.376.376,0,0,1,.376.376.376.376,0,0,1-.376.376" transform="translate(2.412 1.608)"/>
    </g>
    <g id="Group_73" data-name="Group 73" transform="translate(41.764 32.311)">
      <path id="Path_74" data-name="Path 74" class="cls-8" d="M-1.5-1.071v-.188H-2.25a.188.188,0,0,1-.188-.188.188.188,0,0,1,.188-.188H-1.5a.188.188,0,0,1,.188.188.188.188,0,0,1-.188.188v.376a.564.564,0,0,0,.564-.564A.564.564,0,0,0-1.5-2.01H-2.25a.564.564,0,0,0-.564.564.564.564,0,0,0,.564.564H-1.5Z" transform="translate(2.814 2.01)"/>
    </g>
    <g id="Group_74" data-name="Group 74" transform="translate(40.449 35.129)">
      <path id="Path_75" data-name="Path 75" class="cls-8" d="M-2.569-.856H-4.448a.375.375,0,0,1-.375-.376.375.375,0,0,1,.375-.376h1.879a.376.376,0,0,1,.376.376.376.376,0,0,1-.376.376" transform="translate(4.823 1.608)"/>
    </g>
    <g id="Group_75" data-name="Group 75" transform="translate(40.261 34.941)">
      <path id="Path_76" data-name="Path 76" class="cls-8" d="M-2.783-1.071v-.188H-4.662a.188.188,0,0,1-.187-.188.188.188,0,0,1,.187-.188h1.879a.188.188,0,0,1,.188.188.188.188,0,0,1-.188.188v.376a.564.564,0,0,0,.564-.564.564.564,0,0,0-.564-.564H-4.662a.563.563,0,0,0-.563.564.563.563,0,0,0,.563.564h1.879Z" transform="translate(5.225 2.01)"/>
    </g>
    <g id="Group_76" data-name="Group 76" transform="translate(37.819 37.383)">
      <path id="Path_77" data-name="Path 77" class="cls-8" d="M-5.138-.856H-9.271a.376.376,0,0,1-.376-.376.376.376,0,0,1,.376-.376h4.133a.376.376,0,0,1,.376.376.376.376,0,0,1-.376.376" transform="translate(9.647 1.608)"/>
    </g>
    <g id="Group_77" data-name="Group 77" transform="translate(37.631 37.195)">
      <path id="Path_78" data-name="Path 78" class="cls-8" d="M-5.353-1.071v-.188H-9.485a.188.188,0,0,1-.188-.188.188.188,0,0,1,.188-.188h4.133a.188.188,0,0,1,.188.188.188.188,0,0,1-.188.188v.376a.564.564,0,0,0,.564-.564.564.564,0,0,0-.564-.564H-9.485a.564.564,0,0,0-.564.564.564.564,0,0,0,.564.564h4.133Z" transform="translate(10.049 2.01)"/>
    </g>
    <g id="Group_78" data-name="Group 78" transform="translate(44.581 29.493)">
      <path id="Path_79" data-name="Path 79" class="cls-8" d="M-6.637,0a5.824,5.824,0,0,0-5.824,5.824,5.824,5.824,0,0,0,5.824,5.823A5.824,5.824,0,0,0-.814,5.824,5.824,5.824,0,0,0-6.637,0m0,10.144a4.321,4.321,0,0,1-4.321-4.321A4.321,4.321,0,0,1-6.637,1.5,4.321,4.321,0,0,1-2.317,5.824a4.321,4.321,0,0,1-4.321,4.321" transform="translate(12.461)"/>
    </g>
    <g id="Group_79" data-name="Group 79" transform="translate(44.394 29.305)">
      <path id="Path_80" data-name="Path 80" class="cls-9" d="M-6.851-.214V-.4A6.012,6.012,0,0,0-12.863,5.61a6.012,6.012,0,0,0,6.012,6.011A6.012,6.012,0,0,0-.84,5.61,6.012,6.012,0,0,0-6.851-.4v.376A5.617,5.617,0,0,1-2.866,1.624,5.62,5.62,0,0,1-1.216,5.61,5.619,5.619,0,0,1-2.866,9.594a5.617,5.617,0,0,1-3.985,1.651,5.617,5.617,0,0,1-3.985-1.651A5.617,5.617,0,0,1-12.487,5.61a5.618,5.618,0,0,1,1.651-3.985A5.617,5.617,0,0,1-6.851-.026Zm0,10.144V9.742a4.123,4.123,0,0,1-2.922-1.21,4.119,4.119,0,0,1-1.21-2.922,4.117,4.117,0,0,1,1.21-2.922,4.119,4.119,0,0,1,2.922-1.21,4.119,4.119,0,0,1,2.922,1.21A4.117,4.117,0,0,1-2.719,5.61a4.119,4.119,0,0,1-1.21,2.922,4.123,4.123,0,0,1-2.922,1.21v.375A4.508,4.508,0,0,0-2.343,5.61,4.508,4.508,0,0,0-6.851,1.1,4.508,4.508,0,0,0-11.36,5.61a4.508,4.508,0,0,0,4.509,4.508Z" transform="translate(12.863 0.402)"/>
    </g>
    <g id="Group_80" data-name="Group 80" transform="translate(49.841 34.753)">
      <path id="Path_81" data-name="Path 81" class="cls-8" d="M-1.285-.642a.564.564,0,0,1-.564.564.564.564,0,0,1-.564-.564.564.564,0,0,1,.564-.564.564.564,0,0,1,.564.564" transform="translate(2.412 1.206)"/>
    </g>
    <g id="Group_81" data-name="Group 81" transform="translate(49.654 34.565)">
      <path id="Path_82" data-name="Path 82" class="cls-9" d="M-1.5-.856h-.188a.376.376,0,0,1-.376.376.376.376,0,0,1-.376-.376.376.376,0,0,1,.376-.376.376.376,0,0,1,.376.376h.376a.752.752,0,0,0-.752-.752.752.752,0,0,0-.752.752A.752.752,0,0,0-2.062-.1a.752.752,0,0,0,.752-.752Z" transform="translate(2.814 1.608)"/>
    </g>
    <g id="Group_82" data-name="Group 82" transform="translate(48.368 31.692)">
      <path id="Path_83" data-name="Path 83" class="cls-8" d="M-.071-1.639a1.073,1.073,0,0,1,.7-1.324,1.073,1.073,0,0,1,1.444.4L2.052-.729.981-.4Z" transform="translate(0.133 3.078)"/>
    </g>
    <g id="Group_83" data-name="Group 83" transform="translate(48.18 31.504)">
      <path id="Path_84" data-name="Path 84" class="cls-8" d="M-.285-1.854l.172-.074A.588.588,0,0,1-.159-2.16.994.994,0,0,1,.492-3a1.208,1.208,0,0,1,.473-.1.926.926,0,0,1,.453.111.614.614,0,0,1,.271.294l.173-.074-.188,0L1.652-1.082.83-.83-.141-1.975l-.143.122.172-.074-.172.074-.143.122L.7-.4,2.024-.8,2.05-2.811l-.016-.036A.991.991,0,0,0,1.6-3.32a1.3,1.3,0,0,0-.638-.16,1.582,1.582,0,0,0-.621.13A1.362,1.362,0,0,0-.535-2.16a.959.959,0,0,0,.078.38l.011.026.018.021Z" transform="translate(0.535 3.48)"/>
    </g>
    <g id="Group_84" data-name="Group 84" transform="translate(46.639 34.614)">
      <path id="Path_85" data-name="Path 85" class="cls-8" d="M-1.132-2.2a.925.925,0,0,1-.985-.856.925.925,0,0,1,.74-1.074L.238-3.71l.007.935Z" transform="translate(2.126 4.129)"/>
    </g>
    <g id="Group_85" data-name="Group 85" transform="translate(46.451 34.423)">
      <path id="Path_86" data-name="Path 86" class="cls-8" d="M-1.347-2.417-1.37-2.6l-.076,0a.754.754,0,0,1-.7-.7.951.951,0,0,1-.007-.114.818.818,0,0,1,.171-.509.625.625,0,0,1,.414-.241l-.024-.186-.047.182,1.475.383.005.665-1.261.527.072.173L-1.37-2.6l.023.186.072.173L.22-2.868.21-4.073l-1.789-.465-.036,0a1,1,0,0,0-.662.38,1.2,1.2,0,0,0-.252.743,1.256,1.256,0,0,0,.01.161A1.127,1.127,0,0,0-1.446-2.223a.979.979,0,0,0,.122-.007l.026,0,.023-.01Z" transform="translate(2.528 4.538)"/>
    </g>
    <g id="Group_86" data-name="Group 86" transform="translate(51.267 32.835)">
      <path id="Path_87" data-name="Path 87" class="cls-8" d="M-.719-.222a.893.893,0,0,1,1.24.134.893.893,0,0,1,.137,1.24L-.762,1.7-1.349.974Z" transform="translate(1.349 0.417)"/>
    </g>
    <g id="Group_87" data-name="Group 87" transform="translate(51.043 32.647)">
      <path id="Path_88" data-name="Path 88" class="cls-8" d="M-.974-.436-.84-.3a.5.5,0,0,1,.364-.14.888.888,0,0,1,.61.274A.887.887,0,0,1,.409.442.5.5,0,0,1,.27.805L.4.938.336.763l-1.293.5L-1.38.737-.807-.348-.974-.436-.84-.3-.974-.436-1.14-.524-1.828.781l.751.928L.508,1.1l.028-.028A.878.878,0,0,0,.785.442,1.262,1.262,0,0,0,.4-.435,1.262,1.262,0,0,0-.476-.819a.879.879,0,0,0-.63.25l-.02.02-.013.025Z" transform="translate(1.828 0.819)"/>
    </g>
    <g id="Group_88" data-name="Group 88" transform="translate(48.47 36.54)">
      <path id="Path_89" data-name="Path 89" class="cls-8" d="M-2.132-1.853a.877.877,0,0,1-1.088.57.876.876,0,0,1-.769-.958l.875-1.238.866.282Z" transform="translate(4.003 3.479)"/>
    </g>
    <g id="Group_89" data-name="Group 89" transform="translate(48.282 36.318)">
      <path id="Path_90" data-name="Path 90" class="cls-8" d="M-2.346-2.106l-.184-.038a.509.509,0,0,1-.22.315A.8.8,0,0,1-3.2-1.7a.945.945,0,0,1-.2-.021.881.881,0,0,1-.465-.252.576.576,0,0,1-.168-.389l.01-.095L-4.2-2.493l.153.108.795-1.125.616.2.1,1.219.187-.016-.184-.038.184.038.187-.016-.126-1.468L-3.4-3.953-4.379-2.57l-.008.038A.83.83,0,0,0-4.4-2.36a.948.948,0,0,0,.27.646,1.261,1.261,0,0,0,.662.363,1.336,1.336,0,0,0,.272.029,1.17,1.17,0,0,0,.663-.2.882.882,0,0,0,.375-.548l.006-.027,0-.027Z" transform="translate(4.405 3.953)"/>
    </g>
    <g id="Group_90" data-name="Group 90" transform="translate(51.05 35.898)">
      <path id="Path_91" data-name="Path 91" class="cls-8" d="M-2.151-.519A.877.877,0,0,1-2.087.707a.877.877,0,0,1-1.191.3l-.76-1.312.618-.67Z" transform="translate(4.038 0.975)"/>
    </g>
    <g id="Group_91" data-name="Group 91" transform="translate(50.818 35.679)">
      <path id="Path_92" data-name="Path 92" class="cls-8" d="M-2.415-.769l-.112.151a.539.539,0,0,1,.2.448A.879.879,0,0,1-2.5.346.818.818,0,0,1-3.135.7a.491.491,0,0,1-.3-.093l-.111.151L-3.38.663-4.07-.529l.44-.476,1.152.413.064-.177-.112.151.112-.151.064-.177-1.387-.5-.8.863L-3.685.885l.031.023a.865.865,0,0,0,.519.167A1.192,1.192,0,0,0-2.2.57a1.256,1.256,0,0,0,.252-.74A.914.914,0,0,0-2.3-.92l-.022-.016-.026-.009Z" transform="translate(4.534 1.443)"/>
    </g>
    <g id="Group_92" data-name="Group 92" transform="translate(58.859 59.925)">
      <path id="Path_93" data-name="Path 93" class="cls-4" d="M-4.71-2.355A2.066,2.066,0,0,1-6.776-.289,2.066,2.066,0,0,1-8.843-2.355,2.067,2.067,0,0,1-6.776-4.422,2.067,2.067,0,0,1-4.71-2.355" transform="translate(8.843 4.422)"/>
    </g>
    <g id="Group_93" data-name="Group 93" transform="translate(58.671 59.738)">
      <path id="Path_94" data-name="Path 94" class="cls-4" d="M-4.924-2.569h-.188a1.871,1.871,0,0,1-.55,1.328A1.874,1.874,0,0,1-6.99-.69a1.874,1.874,0,0,1-1.329-.551,1.871,1.871,0,0,1-.55-1.328A1.871,1.871,0,0,1-8.319-3.9,1.874,1.874,0,0,1-6.99-4.448,1.874,1.874,0,0,1-5.662-3.9a1.871,1.871,0,0,1,.55,1.328h.376A2.254,2.254,0,0,0-6.99-4.823,2.254,2.254,0,0,0-9.245-2.569,2.254,2.254,0,0,0-6.99-.315,2.254,2.254,0,0,0-4.736-2.569Z" transform="translate(9.245 4.823)"/>
    </g>
    <g id="Group_94" data-name="Group 94" transform="translate(55.853 1.315)">
      <path id="Path_95" data-name="Path 95" class="cls-10" d="M-8.136-4.068A3.569,3.569,0,0,1-11.7-.5a3.569,3.569,0,0,1-3.569-3.569A3.569,3.569,0,0,1-11.7-7.637,3.569,3.569,0,0,1-8.136-4.068" transform="translate(15.274 7.637)"/>
    </g>
    <g id="Group_95" data-name="Group 95" transform="translate(55.665 1.127)">
      <path id="Path_96" data-name="Path 96" class="cls-5" d="M-8.35-4.282h-.188a3.37,3.37,0,0,1-.99,2.391,3.37,3.37,0,0,1-2.391.99,3.369,3.369,0,0,1-2.391-.99,3.37,3.37,0,0,1-.99-2.391,3.37,3.37,0,0,1,.99-2.391,3.369,3.369,0,0,1,2.391-.99,3.37,3.37,0,0,1,2.391.99,3.37,3.37,0,0,1,.99,2.391h.376a3.757,3.757,0,0,0-3.757-3.757,3.757,3.757,0,0,0-3.757,3.757A3.757,3.757,0,0,0-11.919-.525,3.757,3.757,0,0,0-8.162-4.282Z" transform="translate(15.676 8.039)"/>
    </g>
    <g id="Group_96" data-name="Group 96" transform="translate(23.166 21.228)">
      <path id="Path_97" data-name="Path 97" class="cls-3" d="M-6.851-3.425A3.005,3.005,0,0,1-9.857-.42a3.006,3.006,0,0,1-3.006-3.006A3.006,3.006,0,0,1-9.857-6.431,3.005,3.005,0,0,1-6.851-3.425" transform="translate(12.863 6.431)"/>
    </g>
    <g id="Group_97" data-name="Group 97" transform="translate(22.979 21.04)">
      <path id="Path_98" data-name="Path 98" class="cls-3" d="M-7.065-3.64h-.188a2.807,2.807,0,0,1-.825,1.992,2.807,2.807,0,0,1-1.992.825,2.808,2.808,0,0,1-1.993-.825,2.811,2.811,0,0,1-.825-1.992,2.811,2.811,0,0,1,.825-1.992,2.808,2.808,0,0,1,1.993-.825,2.807,2.807,0,0,1,1.992.825A2.807,2.807,0,0,1-7.253-3.64h.376a3.193,3.193,0,0,0-3.193-3.193A3.193,3.193,0,0,0-13.264-3.64,3.193,3.193,0,0,0-10.071-.446,3.193,3.193,0,0,0-6.877-3.64Z" transform="translate(13.264 6.833)"/>
    </g>
    <g id="Group_98" data-name="Group 98" transform="translate(61.489 11.459)">
      <path id="Path_99" data-name="Path 99" class="cls-3" d="M-3.854-1.927A1.691,1.691,0,0,1-5.545-.236a1.691,1.691,0,0,1-1.69-1.691,1.691,1.691,0,0,1,1.69-1.691A1.691,1.691,0,0,1-3.854-1.927" transform="translate(7.235 3.618)"/>
    </g>
    <g id="Group_99" data-name="Group 99" transform="translate(61.301 11.271)">
      <path id="Path_100" data-name="Path 100" class="cls-3" d="M-4.068-2.141h-.188A1.5,1.5,0,0,1-4.7-1.078a1.5,1.5,0,0,1-1.063.44,1.5,1.5,0,0,1-1.062-.44,1.5,1.5,0,0,1-.44-1.063A1.5,1.5,0,0,1-6.821-3.2a1.5,1.5,0,0,1,1.062-.44A1.5,1.5,0,0,1-4.7-3.2a1.5,1.5,0,0,1,.44,1.063h.376A1.879,1.879,0,0,0-5.759-4.02,1.879,1.879,0,0,0-7.637-2.141,1.879,1.879,0,0,0-5.759-.262,1.879,1.879,0,0,0-3.88-2.141Z" transform="translate(7.637 4.02)"/>
    </g>
    <g id="Group_100" data-name="Group 100" transform="translate(54.726 0.188)">
      <path id="Path_101" data-name="Path 101" class="cls-5" d="M-9.849-4.924A4.321,4.321,0,0,1-14.169-.6,4.321,4.321,0,0,1-18.49-4.924a4.321,4.321,0,0,1,4.321-4.321A4.321,4.321,0,0,1-9.849-4.924" transform="translate(18.49 9.245)"/>
    </g>
    <g id="Group_101" data-name="Group 101" transform="translate(54.538 0)">
      <path id="Path_102" data-name="Path 102" class="cls-5" d="M-10.063-5.138h-.188a4.119,4.119,0,0,1-1.21,2.922,4.119,4.119,0,0,1-2.922,1.21,4.119,4.119,0,0,1-2.922-1.21,4.119,4.119,0,0,1-1.21-2.922,4.119,4.119,0,0,1,1.21-2.922,4.119,4.119,0,0,1,2.922-1.21,4.119,4.119,0,0,1,2.922,1.21,4.119,4.119,0,0,1,1.21,2.922h.376a4.508,4.508,0,0,0-4.509-4.509,4.508,4.508,0,0,0-4.509,4.509A4.508,4.508,0,0,0-14.383-.63,4.508,4.508,0,0,0-9.875-5.138Z" transform="translate(18.892 9.647)"/>
    </g>
    <g id="Group_102" data-name="Group 102" transform="translate(41.2 61.053)">
      <path id="Path_103" data-name="Path 103" class="cls-5" d="M-3.425-1.713a1.5,1.5,0,0,1-1.5,1.5,1.5,1.5,0,0,1-1.5-1.5,1.5,1.5,0,0,1,1.5-1.5,1.5,1.5,0,0,1,1.5,1.5" transform="translate(6.431 3.216)"/>
    </g>
    <g id="Group_103" data-name="Group 103" transform="translate(41.012 60.865)">
      <path id="Path_104" data-name="Path 104" class="cls-5" d="M-3.64-1.927h-.188A1.317,1.317,0,0,1-5.143-.612,1.317,1.317,0,0,1-6.457-1.927,1.317,1.317,0,0,1-5.143-3.242,1.317,1.317,0,0,1-3.827-1.927h.376A1.691,1.691,0,0,0-5.143-3.618a1.691,1.691,0,0,0-1.69,1.691A1.691,1.691,0,0,0-5.143-.236,1.691,1.691,0,0,0-3.452-1.927Z" transform="translate(6.833 3.618)"/>
    </g>
  </g>
</svg>
