<svg xmlns="http://www.w3.org/2000/svg" width="558.865" height="713.184" viewBox="0 0 558.865 713.184">
  <defs>
    <style>
      .cls-1 {
        fill: #8dc39f;
      }

      .cls-2 {
        fill: #41c0f0;
      }

      .cls-3 {
        fill: #ff8b39;
      }

      .cls-4 {
        fill: #020508;
      }

      .cls-5 {
        fill: #2b2e34;
      }

      .cls-6 {
        fill: #fff;
      }

      .cls-7 {
        fill: #fffefd;
      }

      .cls-8 {
        fill: #43cff6;
      }
    </style>
  </defs>
  <g id="Wheelz_big" transform="translate(-195.973 186.947)">
    <g id="Group_308" data-name="Group 308" transform="translate(195.973 -186.947)">
      <g id="Group_250" data-name="Group 250" transform="translate(314.88 198.105)">
        <path id="Path_512" data-name="Path 512" class="cls-1" d="M195.272,119.52c0,81.768-54.152,148.059-120.947,148.059S-46.627,201.288-46.627,119.52,7.525-28.539,74.325-28.539,195.272,37.748,195.272,119.52" transform="translate(46.627 28.539)"/>
      </g>
      <g id="Group_251" data-name="Group 251" transform="translate(312.794 196.02)">
        <path id="Path_513" data-name="Path 513" class="cls-1" d="M196.956,121.2H194.87c.005,40.425-13.4,76.984-34.957,103.375s-51.216,42.593-83.905,42.6S13.67,250.971-7.9,224.579-42.858,161.629-42.858,121.2-29.463,44.22-7.9,17.829s51.221-42.593,83.91-42.6,62.333,16.2,83.905,42.6S194.876,80.779,194.87,121.2h4.171c-.005-41.348-13.681-78.816-35.9-106.011C140.947-12,110.115-28.941,76.009-28.941S11.071-12-11.133,15.193s-35.89,64.663-35.9,106.011,13.686,78.816,35.9,106.011S41.9,271.349,76.009,271.349s64.938-16.944,87.137-44.134c22.215-27.2,35.89-64.663,35.9-106.011Z" transform="translate(47.029 28.941)"/>
      </g>
      <g id="Group_258" data-name="Group 258" transform="translate(135.543 181.424)">
        <path id="Path_520" data-name="Path 520" class="cls-2" d="M329.941,183.487c0,125.533-91.5,227.3-204.359,227.3S-78.783,309.021-78.783,183.487s91.495-227.3,204.364-227.3,204.359,101.767,204.359,227.3" transform="translate(78.783 43.813)"/>
      </g>
      <g id="Group_259" data-name="Group 259" transform="translate(133.458 179.338)">
        <path id="Path_521" data-name="Path 521" class="cls-2" d="M331.624,185.171h-2.086c0,62.261-22.692,118.592-59.319,159.333-36.643,40.741-87.163,65.882-142.954,65.882S20.948,385.245-15.695,344.5c-36.627-40.741-59.319-97.072-59.319-159.333S-52.322,66.579-15.695,25.838C20.948-14.9,71.468-40.044,127.265-40.044S233.577-14.9,270.219,25.838c36.627,40.741,59.319,97.072,59.319,159.333h4.171c0-63.278-23.061-120.594-60.393-162.119S184.333-44.215,127.265-44.215,18.53-18.472-18.792,23.052C-56.13,64.577-79.185,121.893-79.185,185.171S-56.13,305.765-18.792,347.29c37.322,41.524,88.984,67.267,146.057,67.267s108.729-25.743,146.052-67.267,60.393-98.841,60.393-162.119Z" transform="translate(79.185 44.215)"/>
      </g>
      <g id="Group_268" data-name="Group 268" transform="translate(47.96 289.861)">
        <path id="Path_530" data-name="Path 530" class="cls-1" d="M289.539,141.4c0,96.74-80.294,175.167-179.338,175.167S-69.136,238.143-69.136,141.4,11.158-33.764,110.2-33.764,289.539,44.663,289.539,141.4" transform="translate(69.136 33.764)"/>
      </g>
      <g id="Group_269" data-name="Group 269" transform="translate(45.875 287.776)">
        <path id="Path_531" data-name="Path 531" class="cls-1" d="M291.223,143.086h-2.086c0,47.786-19.823,91.038-51.9,122.369a178.836,178.836,0,0,1-125.352,50.712A178.836,178.836,0,0,1-13.466,265.455c-32.077-31.33-51.9-74.582-51.9-122.369s19.823-91.038,51.9-122.369A178.836,178.836,0,0,1,111.885-29.995,178.836,178.836,0,0,1,237.237,20.718c32.077,31.33,51.9,74.582,51.9,122.369h4.171c0-48.954-20.321-93.29-53.156-125.352a183.009,183.009,0,0,0-128.267-51.9,183.009,183.009,0,0,0-128.267,51.9C-49.217,49.8-69.538,94.132-69.538,143.086s20.321,93.29,53.156,125.352a183.009,183.009,0,0,0,128.267,51.9,183.009,183.009,0,0,0,128.267-51.9c32.835-32.062,53.156-76.4,53.156-125.352Z" transform="translate(69.538 34.166)"/>
      </g>
      <g id="Group_270" data-name="Group 270" transform="translate(110.517 93.842)">
        <path id="Path_532" data-name="Path 532" class="cls-3" d="M237.357,130.459c0,89.254-65.82,161.61-147.017,161.61S-56.676,219.713-56.676,130.459,9.149-31.151,90.341-31.151s147.017,72.357,147.017,161.61" transform="translate(56.676 31.151)"/>
      </g>
      <g id="Group_271" data-name="Group 271" transform="translate(108.437 91.756)">
        <path id="Path_533" data-name="Path 533" class="cls-3" d="M239.037,132.143h-2.086c0,44.113-16.264,84.019-42.515,112.875s-62.448,46.65-102.416,46.655-76.154-17.8-102.41-46.655-42.521-68.761-42.521-112.875S-36.642,48.124-10.39,19.268s62.442-46.65,102.41-46.65,76.154,17.795,102.416,46.65,42.515,68.761,42.515,112.875h4.171c0-45.141-16.643-86.042-43.6-115.681s-64.269-48.02-105.5-48.015S13.474-13.172-13.477,16.462-57.077,87-57.077,132.143s16.643,86.042,43.6,115.681,64.269,48.02,105.5,48.015,78.546-18.381,105.5-48.015,43.6-70.536,43.6-115.681Z" transform="translate(57.077 31.553)"/>
      </g>
      <g id="Group_272" data-name="Group 272" transform="translate(72.984 193.933)">
        <path id="Path_534" data-name="Path 534" class="cls-4" d="M329.941,161.605c0,110.561-91.5,200.193-204.359,200.193S-78.783,272.166-78.783,161.605,12.712-38.588,125.581-38.588,329.941,51.045,329.941,161.605" transform="translate(78.783 38.588)"/>
      </g>
      <g id="Group_273" data-name="Group 273" transform="translate(70.898 191.848)">
        <path id="Path_535" data-name="Path 535" class="cls-5" d="M331.624,163.289h-2.086c0,54.7-22.625,104.206-59.231,140.065a205.287,205.287,0,0,1-286.09,0c-36.606-35.859-59.231-85.368-59.231-140.065S-52.389,59.083-15.783,23.224a205.287,205.287,0,0,1,286.09,0c36.606,35.859,59.231,85.368,59.231,140.065h4.171c0-55.864-23.123-106.452-60.481-143.048a209.471,209.471,0,0,0-291.932,0c-37.359,36.6-60.481,87.184-60.481,143.048S-56.062,269.741-18.7,306.337a209.471,209.471,0,0,0,291.932,0c37.359-36.6,60.481-87.184,60.481-143.048Z" transform="translate(79.185 38.99)"/>
      </g>
      <g id="Group_274" data-name="Group 274" transform="translate(210.614 360.76)">
        <path id="Path_536" data-name="Path 536" class="cls-6" d="M10.1,6.734H1.759a4.171,4.171,0,0,1,0-8.342H10.1a4.171,4.171,0,0,1,0,8.342" transform="translate(2.412 1.608)"/>
      </g>
      <g id="Group_275" data-name="Group 275" transform="translate(208.528 358.675)">
        <path id="Path_537" data-name="Path 537" class="cls-6" d="M11.785,8.418V6.332H3.443a2.086,2.086,0,0,1,0-4.171h8.342a2.086,2.086,0,1,1,0,4.171V10.5a6.257,6.257,0,1,0,0-12.513H3.443a6.257,6.257,0,0,0,0,12.513h8.342Z" transform="translate(2.814 2.01)"/>
      </g>
      <g id="Group_276" data-name="Group 276" transform="translate(193.935 389.955)">
        <path id="Path_538" data-name="Path 538" class="cls-6" d="M20.2,6.734H-.657A4.167,4.167,0,0,1-4.823,2.563,4.167,4.167,0,0,1-.657-1.608H20.2a4.171,4.171,0,1,1,0,8.342" transform="translate(4.823 1.608)"/>
      </g>
      <g id="Group_277" data-name="Group 277" transform="translate(191.85 387.87)">
        <path id="Path_539" data-name="Path 539" class="cls-6" d="M21.882,8.418V6.332H1.027a2.086,2.086,0,0,1,0-4.171H21.882a2.086,2.086,0,0,1,0,4.171V10.5a6.257,6.257,0,0,0,0-12.513H1.027a6.257,6.257,0,0,0,0,12.513H21.882Z" transform="translate(5.225 2.01)"/>
      </g>
      <g id="Group_278" data-name="Group 278" transform="translate(164.738 414.979)">
        <path id="Path_540" data-name="Path 540" class="cls-6" d="M40.4,6.734H-5.476A4.171,4.171,0,0,1-9.647,2.563,4.171,4.171,0,0,1-5.476-1.608H40.4a4.171,4.171,0,0,1,0,8.342" transform="translate(9.647 1.608)"/>
      </g>
      <g id="Group_279" data-name="Group 279" transform="translate(162.652 412.893)">
        <path id="Path_541" data-name="Path 541" class="cls-6" d="M42.085,8.418V6.332H-3.792A2.086,2.086,0,0,1-5.878,4.247,2.089,2.089,0,0,1-3.792,2.161H42.085a2.086,2.086,0,0,1,0,4.171V10.5a6.257,6.257,0,0,0,0-12.513H-3.792a6.257,6.257,0,0,0-6.257,6.257A6.257,6.257,0,0,0-3.792,10.5H42.085Z" transform="translate(10.049 2.01)"/>
      </g>
      <g id="Group_280" data-name="Group 280" transform="translate(239.808 327.397)">
        <path id="Path_542" data-name="Path 542" class="cls-6" d="M52.186,0a64.645,64.645,0,1,0,64.647,64.647A64.647,64.647,0,0,0,52.186,0m0,112.61a47.963,47.963,0,1,1,47.963-47.963A47.965,47.965,0,0,1,52.186,112.61" transform="translate(12.461)"/>
      </g>
      <g id="Group_281" data-name="Group 281" transform="translate(237.722 325.311)">
        <path id="Path_543" data-name="Path 543" class="cls-7" d="M53.87,1.684V-.4A66.73,66.73,0,1,0,120.6,66.331,66.736,66.736,0,0,0,53.87-.4V3.769A62.562,62.562,0,1,1,9.632,22.093,62.357,62.357,0,0,1,53.87,3.769Zm0,112.61v-2.086A45.876,45.876,0,1,1,86.31,98.771a45.768,45.768,0,0,1-32.44,13.437v4.166A50.046,50.046,0,1,0,3.822,66.331,50.043,50.043,0,0,0,53.87,116.374Z" transform="translate(12.863 0.402)"/>
      </g>
      <g id="Group_282" data-name="Group 282" transform="translate(298.198 385.785)">
        <path id="Path_544" data-name="Path 544" class="cls-6" d="M10.1,5.051A6.257,6.257,0,1,1,3.845-1.206,6.257,6.257,0,0,1,10.1,5.051" transform="translate(2.412 1.206)"/>
      </g>
      <g id="Group_283" data-name="Group 283" transform="translate(296.112 383.699)">
        <path id="Path_545" data-name="Path 545" class="cls-7" d="M11.785,6.734H9.7A4.171,4.171,0,1,1,5.528,2.563,4.178,4.178,0,0,1,9.7,6.734h4.171a8.342,8.342,0,1,0-8.342,8.342,8.343,8.343,0,0,0,8.342-8.342Z" transform="translate(2.814 1.608)"/>
      </g>
      <g id="Group_284" data-name="Group 284" transform="translate(281.837 351.807)">
        <path id="Path_546" data-name="Path 546" class="cls-6" d="M.558,12.89C-1.71,7.6,1.787,1.02,8.366-1.8s13.753-.815,16.026,4.477L24.127,23l-11.9,3.658Z" transform="translate(0.133 3.078)"/>
      </g>
      <g id="Group_285" data-name="Group 285" transform="translate(279.752 349.721)">
        <path id="Path_547" data-name="Path 547" class="cls-6" d="M2.241,14.574l1.914-.82a6.53,6.53,0,0,1-.519-2.584C3.6,7.768,6.287,3.752,10.868,1.8A13.406,13.406,0,0,1,16.124.691a10.284,10.284,0,0,1,5.027,1.23,6.82,6.82,0,0,1,3,3.263l1.92-.825-2.086-.026-.244,18.8-9.131,2.807L3.833,13.225,2.241,14.574l1.914-.82-1.914.82L.648,15.923,13.208,30.74l14.666-4.514.291-22.282-.176-.4a11,11,0,0,0-4.783-5.245A14.378,14.378,0,0,0,16.124-3.48,17.56,17.56,0,0,0,9.229-2.033C3.366.494-.5,5.677-.535,11.171a10.642,10.642,0,0,0,.861,4.223l.119.291.2.239Z" transform="translate(0.535 3.48)"/>
      </g>
      <g id="Group_286" data-name="Group 286" transform="translate(262.647 384.245)">
        <path id="Path_548" data-name="Path 548" class="cls-6" d="M8.9,17.292c-5.287.669-10.184-3.585-10.931-9.5S.9-3.46,6.189-4.129L24.114.525l.078,10.381Z" transform="translate(2.126 4.129)"/>
      </g>
      <g id="Group_287" data-name="Group 287" transform="translate(260.561 382.123)">
        <path id="Path_549" data-name="Path 549" class="cls-6" d="M10.587,19.005l-.259-2.07-.84.052c-3.637.031-7.18-3.149-7.766-7.74a10.557,10.557,0,0,1-.078-1.266,9.085,9.085,0,0,1,1.9-5.655,6.937,6.937,0,0,1,4.6-2.672l-.265-2.07L7.35-.4,23.723,3.851l.057,7.382-14,5.847.8,1.925-.259-2.07.259,2.07.8,1.925L27.972,14l-.1-13.38L8.009-4.538l-.394.052A11.152,11.152,0,0,0,.268-.263a13.28,13.28,0,0,0-2.8,8.244,13.938,13.938,0,0,0,.114,1.79c.809,6.412,5.836,11.356,11.9,11.388a10.863,10.863,0,0,0,1.359-.083l.285-.036.259-.109Z" transform="translate(2.528 4.538)"/>
      </g>
      <g id="Group_288" data-name="Group 288" transform="translate(314.021 364.498)">
        <path id="Path_550" data-name="Path 550" class="cls-6" d="M5.65,1.744C9.032-1.643,15.19-.974,19.413,3.233s4.9,10.376,1.52,13.764L5.167,23.072l-6.516-8.057Z" transform="translate(1.349 0.417)"/>
      </g>
      <g id="Group_289" data-name="Group 289" transform="translate(311.536 362.41)">
        <path id="Path_551" data-name="Path 551" class="cls-6" d="M7.656,3.43,9.134,4.9a5.575,5.575,0,0,1,4.041-1.551A9.861,9.861,0,0,1,19.946,6.4a9.851,9.851,0,0,1,3.061,6.781,5.572,5.572,0,0,1-1.541,4.031l1.473,1.473-.747-1.945-14.35,5.53-4.7-5.811L9.5,4.405,7.656,3.43,9.134,4.9,7.656,3.43,5.814,2.455l-7.642,14.49,8.337,10.3,17.6-6.781.311-.311a9.749,9.749,0,0,0,2.76-6.978,14.008,14.008,0,0,0-4.285-9.733A14.011,14.011,0,0,0,13.176-.819a9.76,9.76,0,0,0-7,2.776l-.218.223-.145.275Z" transform="translate(1.828 0.819)"/>
      </g>
      <g id="Group_290" data-name="Group 290" transform="translate(282.972 405.617)">
        <path id="Path_552" data-name="Path 552" class="cls-6" d="M16.763,14.57c-.981,4.685-6.386,7.517-12.078,6.329S-4.83,14.949-3.849,10.264L5.863-3.479,15.481-.345Z" transform="translate(4.003 3.479)"/>
      </g>
      <g id="Group_291" data-name="Group 291" transform="translate(280.884 403.158)">
        <path id="Path_553" data-name="Path 553" class="cls-6" d="M18.448,16.555,16.4,16.13a5.648,5.648,0,0,1-2.438,3.492,8.864,8.864,0,0,1-5,1.447A10.486,10.486,0,0,1,6.8,20.84a9.782,9.782,0,0,1-5.162-2.8A6.391,6.391,0,0,1-.234,13.728l.109-1.053-2.039-.425,1.7,1.2L8.363.965,15.206,3.2l1.162,13.535,2.08-.176L16.4,16.13l2.044.425,2.075-.176-1.4-16.3L6.734-3.953-4.12,11.4l-.088.42a9.213,9.213,0,0,0-.2,1.909,10.522,10.522,0,0,0,3,7.17A13.993,13.993,0,0,0,5.94,24.923a14.835,14.835,0,0,0,3.025.316,12.983,12.983,0,0,0,7.357-2.179,9.787,9.787,0,0,0,4.166-6.08l.062-.3-.026-.3Z" transform="translate(4.405 3.953)"/>
      </g>
      <g id="Group_292" data-name="Group 292" transform="translate(311.612 398.495)">
        <path id="Path_554" data-name="Path 554" class="cls-6" d="M16.911,4.083c3.849,2.843,4.166,8.944.711,13.618S8.247,23.865,4.4,21.022L-4.038,6.459,2.82-.975Z" transform="translate(4.038 0.975)"/>
      </g>
      <g id="Group_293" data-name="Group 293" transform="translate(309.038 396.067)">
        <path id="Path_555" data-name="Path 555" class="cls-6" d="M18.988,6.043l-1.24,1.676a5.985,5.985,0,0,1,2.262,4.97,9.757,9.757,0,0,1-1.987,5.733A9.083,9.083,0,0,1,11,22.339,5.447,5.447,0,0,1,7.71,21.3L6.475,22.982l1.8-1.048L.612,8.7,5.494,3.418,18.283,8l.706-1.961-1.24,1.676,1.24-1.676.706-1.961L4.3-1.443-4.534,8.134,4.887,24.4l.348.259A9.6,9.6,0,0,0,11,26.51,13.228,13.228,0,0,0,21.38,20.9a13.938,13.938,0,0,0,2.8-8.213,10.143,10.143,0,0,0-3.953-8.322l-.249-.182-.285-.1Z" transform="translate(4.534 1.443)"/>
      </g>
      <g id="Group_294" data-name="Group 294" transform="translate(398.294 665.216)">
        <path id="Path_556" data-name="Path 556" class="cls-3" d="M37.034,18.519A22.939,22.939,0,1,1,14.1-4.422,22.937,22.937,0,0,1,37.034,18.519" transform="translate(8.843 4.422)"/>
      </g>
      <g id="Group_295" data-name="Group 295" transform="translate(396.209 663.136)">
        <path id="Path_557" data-name="Path 557" class="cls-3" d="M38.718,20.2H36.632a20.851,20.851,0,0,1-35.6,14.744A20.853,20.853,0,1,1,30.526,5.454,20.767,20.767,0,0,1,36.632,20.2H40.8A25.024,25.024,0,1,0,15.782,45.22,25.019,25.019,0,0,0,40.8,20.2Z" transform="translate(9.245 4.823)"/>
      </g>
      <g id="Group_296" data-name="Group 296" transform="translate(364.931 14.598)">
        <path id="Path_558" data-name="Path 558" class="cls-8" d="M63.967,31.984A39.621,39.621,0,1,1,24.347-7.637,39.619,39.619,0,0,1,63.967,31.984" transform="translate(15.274 7.637)"/>
      </g>
      <g id="Group_297" data-name="Group 297" transform="translate(362.845 12.513)">
        <path id="Path_559" data-name="Path 559" class="cls-8" d="M65.651,33.667H63.565A37.533,37.533,0,1,1,52.572,7.125,37.408,37.408,0,0,1,63.565,33.667h4.171A41.706,41.706,0,1,0,26.03,75.373,41.7,41.7,0,0,0,67.736,33.667Z" transform="translate(15.676 8.039)"/>
      </g>
      <g id="Group_298" data-name="Group 298" transform="translate(2.08 235.643)">
        <path id="Path_560" data-name="Path 560" class="cls-1" d="M53.87,26.933A33.366,33.366,0,1,1,20.506-6.431,33.362,33.362,0,0,1,53.87,26.933" transform="translate(12.863 6.431)"/>
      </g>
      <g id="Group_299" data-name="Group 299" transform="translate(0 233.558)">
        <path id="Path_561" data-name="Path 561" class="cls-1" d="M55.549,28.616H53.464A31.281,31.281,0,1,1,44.3,6.5a31.157,31.157,0,0,1,9.162,22.116h4.171A35.449,35.449,0,1,0,22.185,64.066,35.448,35.448,0,0,0,57.635,28.616Z" transform="translate(13.264 6.833)"/>
      </g>
      <g id="Group_300" data-name="Group 300" transform="translate(427.49 127.203)">
        <path id="Path_562" data-name="Path 562" class="cls-1" d="M30.3,15.152A18.767,18.767,0,1,1,11.53-3.618,18.771,18.771,0,0,1,30.3,15.152" transform="translate(7.235 3.618)"/>
      </g>
      <g id="Group_301" data-name="Group 301" transform="translate(425.405 125.118)">
        <path id="Path_563" data-name="Path 563" class="cls-1" d="M31.984,16.836H29.9a16.68,16.68,0,0,1-28.477,11.8A16.682,16.682,0,1,1,25.011,5.038a16.611,16.611,0,0,1,4.887,11.8h4.171A20.853,20.853,0,1,0,13.213,37.691,20.86,20.86,0,0,0,34.069,16.836Z" transform="translate(7.637 4.02)"/>
      </g>
      <g id="Group_302" data-name="Group 302" transform="translate(352.417 2.086)">
        <path id="Path_564" data-name="Path 564" class="cls-2" d="M77.436,38.718A47.963,47.963,0,1,1,29.473-9.245,47.962,47.962,0,0,1,77.436,38.718" transform="translate(18.49 9.245)"/>
      </g>
      <g id="Group_303" data-name="Group 303" transform="translate(350.331 0)">
        <path id="Path_565" data-name="Path 565" class="cls-2" d="M79.119,40.4H77.034A45.876,45.876,0,1,1,63.6,7.961,45.724,45.724,0,0,1,77.034,40.4H81.2A50.048,50.048,0,1,0,31.156,90.45,50.048,50.048,0,0,0,81.2,40.4Z" transform="translate(18.892 9.647)"/>
      </g>
      <g id="Group_304" data-name="Group 304" transform="translate(202.275 677.729)">
        <path id="Path_566" data-name="Path 566" class="cls-2" d="M26.933,13.469A16.682,16.682,0,1,1,10.248-3.216,16.685,16.685,0,0,1,26.933,13.469" transform="translate(6.431 3.216)"/>
      </g>
      <g id="Group_305" data-name="Group 305" transform="translate(200.19 675.644)">
        <path id="Path_567" data-name="Path 567" class="cls-2" d="M28.616,15.152H26.531a14.6,14.6,0,1,1-14.6-14.6,14.62,14.62,0,0,1,14.6,14.6H30.7a18.767,18.767,0,1,0-18.77,18.77A18.774,18.774,0,0,0,30.7,15.152Z" transform="translate(6.833 3.618)"/>
      </g>
    </g>
  </g>
</svg>
